<?xml version="1.0" encoding="utf-8"?>
<!-- Generator: Adobe Illustrator 24.1.3, SVG Export Plug-In . SVG Version: 6.00 Build 0)  -->
<svg version="1.1" id="Layer_1" xmlns="http://www.w3.org/2000/svg" xmlns:xlink="http://www.w3.org/1999/xlink" x="0px" y="0px"
	 viewBox="0 0 512 512" style="enable-background:new 0 0 512 512;" xml:space="preserve">
<style type="text/css">
	.st0{fill:white;}
</style>
<g id="Layer_2_1_">
	<path class="st0" d="M450.3,374.9c22-35.8,33.6-77,33.5-118.9l0,0l0,0c0.1-42-11.5-83.2-33.5-118.9l-0.1-0.2
		C384.4,29.6,244.1-4,136.8,61.8c-30.6,18.8-56.3,44.5-75.1,75.1l-0.1,0.2c-44.7,73-44.7,164.9,0,237.9l0.1,0.2
		c65.8,107.3,206.1,140.9,313.4,75c30.6-18.8,56.3-44.5,75-75.1L450.3,374.9z M285.1,444.8c-4.3,4.2-9.3,7.6-14.8,10.2
		c-9.1,4.3-19.6,4.3-28.7,0c-10.4-5.3-19.3-13.1-25.8-22.7c-13.4-19.4-23.4-41-29.4-63.8c23.2-1.4,46.4-2.2,69.6-2.2
		c23.2,0,46.4,0.7,69.6,2.2c-3.3,11.7-7.5,23.2-12.5,34.4C306.6,418.5,297.1,432.7,285.1,444.8L285.1,444.8z M54.2,268.8h91.9
		c0.6,25.6,3.4,51.2,8.3,76.4c-25.1,2.2-50.2,5.2-75.2,9.1C64.6,328,56,298.8,54.2,268.8z M79.2,157.7c25,3.9,50,6.9,75.2,9.1
		c-4.9,25.2-7.7,50.7-8.3,76.4H54.2C56,213.2,64.6,184,79.2,157.7L79.2,157.7z M226.9,67.2c4.3-4.2,9.3-7.6,14.8-10.2
		c9.1-4.3,19.6-4.3,28.7,0c10.4,5.3,19.3,13.1,25.8,22.7c13.4,19.4,23.4,41,29.4,63.8c-23.2,1.4-46.4,2.2-69.6,2.2
		c-23.2,0-46.4-0.7-69.6-2.2c3.3-11.7,7.5-23.2,12.5-34.4C205.4,93.5,214.9,79.3,226.9,67.2z M457.8,243.2h-91.9
		c-0.6-25.6-3.4-51.2-8.3-76.4c25.1-2.2,50.2-5.2,75.2-9.1C447.4,184,456,213.2,457.8,243.2z M180.2,343.2
		c-5-24.5-7.8-49.4-8.4-74.4h168.6c-0.6,25-3.4,49.9-8.4,74.4c-25.3-1.7-50.5-2.5-75.9-2.5C230.7,340.6,205.4,341.5,180.2,343.2z
		 M331.8,168.8c5,24.5,7.8,49.4,8.4,74.4H171.7c0.6-25,3.4-49.9,8.4-74.4c25.3,1.7,50.5,2.5,75.9,2.5
		C281.3,171.4,306.6,170.5,331.8,168.8L331.8,168.8z M365.9,268.8h91.9c-1.8,30-10.4,59.2-25,85.5c-25-3.9-50-6.9-75.2-9.1
		C362.5,320,365.3,294.4,365.9,268.8z M417.4,134.2c-21.8,3.2-43.8,5.6-65.7,7.5c-3.9-14.7-9-29.1-15.2-43
		c-5.7-12.8-12.8-24.9-21.2-36.1C356,75.1,391.8,100.1,417.4,134.2z M113,113c23.4-23.4,52.1-40.7,83.7-50.4c-0.5,0.6-1,1.2-1.4,1.8
		c-16.3,23.4-28.1,49.6-34.9,77.2c-22-1.9-43.9-4.4-65.8-7.5C100.2,126.7,106.4,119.6,113,113z M94.6,377.8
		c21.8-3.2,43.8-5.6,65.7-7.5c3.9,14.7,9,29.1,15.2,43c5.7,12.8,12.8,24.9,21.2,36.1C156,436.9,120.2,411.9,94.6,377.8L94.6,377.8z
		 M399,399c-23.4,23.4-52.1,40.7-83.7,50.4c0.5-0.6,1-1.2,1.4-1.8c16.3-23.4,28.1-49.6,34.9-77.2c22,1.9,43.9,4.4,65.8,7.5
		C411.8,385.3,405.6,392.4,399,399L399,399z"/>
</g>
</svg>
