<?xml version="1.0" encoding="utf-8"?>
<!-- Generator: Adobe Illustrator 24.1.3, SVG Export Plug-In . SVG Version: 6.00 Build 0)  -->
<svg version="1.1" id="Capa_1" xmlns="http://www.w3.org/2000/svg" xmlns:xlink="http://www.w3.org/1999/xlink" x="0px" y="0px"
	 viewBox="0 0 447.2 447.2" style="enable-background:new 0 0 447.2 447.2;" xml:space="preserve">
<style type="text/css">
	.st0{fill:#44004E;}
</style>
<g>
	<g>
		<path class="st0" d="M420.4,192.2c-1.8-0.3-3.7-0.4-5.5-0.4H99.3l6.9-3.2c6.7-3.2,12.8-7.5,18.1-12.8l88.5-88.5
			c11.7-11.1,13.6-29,4.6-42.4c-10.4-14.3-30.5-17.4-44.7-6.9c-1.2,0.8-2.2,1.8-3.3,2.8l-160,160c-12.5,12.5-12.5,32.8,0,45.3
			c0,0,0,0,0,0l160,160c12.5,12.5,32.8,12.5,45.3-0.1c1-1,1.9-2,2.7-3.1c9-13.4,7-31.3-4.6-42.4l-88.3-88.6
			c-4.7-4.7-10.1-8.6-16-11.7l-9.6-4.3h314.2c16.3,0.6,30.7-10.8,33.8-26.9C449.7,211.5,437.8,195.1,420.4,192.2z"/>
	</g>
</g>
</svg>
