<?xml version="1.0" encoding="utf-8"?>
<!-- Generator: Adobe Illustrator 24.1.3, SVG Export Plug-In . SVG Version: 6.00 Build 0)  -->
<svg version="1.1" id="Layer_1" xmlns="http://www.w3.org/2000/svg" xmlns:xlink="http://www.w3.org/1999/xlink" x="0px" y="0px"
	 viewBox="0 0 512 512" style="enable-background:new 0 0 512 512;" xml:space="preserve">
<style type="text/css">
	.st0{fill:#44004E;}
</style>
<circle class="st0" cx="42.7" cy="85.3" r="42.7"/>
<circle class="st0" cx="42.7" cy="256" r="42.7"/>
<circle class="st0" cx="42.7" cy="426.7" r="42.7"/>
<path class="st0" d="M170.7,106.7h320c11.8,0,21.3-9.5,21.3-21.3S502.5,64,490.7,64h-320c-11.8,0-21.3,9.5-21.3,21.3
	S158.9,106.7,170.7,106.7z"/>
<path class="st0" d="M490.7,234.7h-320c-11.8,0-21.3,9.5-21.3,21.3c0,11.8,9.5,21.3,21.3,21.3h320c11.8,0,21.3-9.5,21.3-21.3
	C512,244.2,502.5,234.7,490.7,234.7z"/>
<path class="st0" d="M490.7,405.3h-320c-11.8,0-21.3,9.5-21.3,21.3c0,11.8,9.5,21.3,21.3,21.3h320c11.8,0,21.3-9.5,21.3-21.3
	C512,414.9,502.5,405.3,490.7,405.3z"/>
</svg>
