<?xml version="1.0" encoding="utf-8"?>
<!-- Generator: Adobe Illustrator 24.1.3, SVG Export Plug-In . SVG Version: 6.00 Build 0)  -->
<svg version="1.1" id="Layer_1" xmlns="http://www.w3.org/2000/svg" xmlns:xlink="http://www.w3.org/1999/xlink" x="0px" y="0px"
	 viewBox="0 0 512 512" style="enable-background:new 0 0 512 512;" xml:space="preserve">
<style type="text/css">
	.st0{fill:#44004E;}
</style>
<path class="st0" d="M512,480c0,17.7-14.3,32-32,32H32c-17.7,0-32-14.3-32-32s14.3-32,32-32h448C497.7,448,512,462.3,512,480z
	 M233.4,378.6c6.2,6.2,14.4,9.4,22.6,9.4c8.2,0,16.4-3.1,22.6-9.4L392,265.3c12.5-12.5,12.5-32.8,0-45.3s-32.8-12.5-45.3,0
	L288,278.7V32c0-17.7-14.3-32-32-32s-32,14.3-32,32v246.7L165.2,220c-12.5-12.5-32.8-12.5-45.3,0s-12.5,32.8,0,45.3L233.4,378.6z"/>
</svg>
