<?xml version="1.0" encoding="utf-8"?>
<!-- Generator: Adobe Illustrator 24.1.3, SVG Export Plug-In . SVG Version: 6.00 Build 0)  -->
<svg version="1.1" id="icons" xmlns="http://www.w3.org/2000/svg" xmlns:xlink="http://www.w3.org/1999/xlink" x="0px" y="0px"
	 viewBox="0 0 512 512" style="enable-background:new 0 0 512 512;" xml:space="preserve">
<style type="text/css">
	.st0{fill:#44004E;}
</style>
<path class="st0" d="M81.4,128c4.1-29,17.4-40,45.1-40h250.2c8.6,0.4,15.3,7.4,15.3,16v24H81.4z M424,128.7V104
	c0-26.2-21.1-47.6-47.3-48H126.6C57,56,49,112.7,48,142.2c0,0.3,0,0.6,0,0.9v1v256c0,26.5,21.5,48,48,48h320c26.5,0,48-21.5,48-48
	V176C464,152.6,447.1,132.6,424,128.7z M372,328c-19.9,0-36-16.1-36-36s16.1-36,36-36s36,16.1,36,36c0,19.8-16,36-35.8,36
	C372.1,328,372.1,328,372,328z"/>
</svg>
