<?xml version="1.0" encoding="utf-8"?>
<!-- Generator: Adobe Illustrator 24.1.3, SVG Export Plug-In . SVG Version: 6.00 Build 0)  -->
<svg version="1.1" id="Capa_1" xmlns="http://www.w3.org/2000/svg" xmlns:xlink="http://www.w3.org/1999/xlink" x="0px" y="0px"
	 viewBox="0 0 512 512" style="enable-background:new 0 0 512 512;" xml:space="preserve">
<style type="text/css">
	.st0{fill:#44004E;}
</style>
<g>
	<path class="st0" d="M0,241h106.4c1-37.6,5.6-72.9,13.2-105H31.1C14.2,167.6,2.2,203.2,0,241z"/>
	<path class="st0" d="M106.4,271H0c2.2,37.8,14.2,73.4,31.1,105h88.5C112,343.9,107.4,308.6,106.4,271z"/>
	<path class="st0" d="M241,241V136h-90.4c-8.2,31.8-13.2,67.5-14.3,105H241z"/>
	<path class="st0" d="M241,106V0c-32.8,9.2-61.9,51.1-81.1,106H241z"/>
	<path class="st0" d="M241,512V406h-81.1C179.1,460.9,208.2,502.8,241,512z"/>
	<path class="st0" d="M271,0v106h81.1C332.9,51.1,303.8,9.2,271,0z"/>
	<path class="st0" d="M375.6,241c-1.1-37.5-6.1-73.2-14.3-105H271v105H375.6z"/>
	<path class="st0" d="M241,271H136.4c1.1,37.5,6.1,73.2,14.3,105H241V271z"/>
	<path class="st0" d="M384,106h77.8c-31-42.5-74.8-78.4-125.7-95.3C355.6,33.8,372,68.6,384,106z"/>
	<path class="st0" d="M128,406H50.2c31,42.5,74.8,78.4,125.7,95.3C156.4,478.2,140,443.4,128,406z"/>
	<path class="st0" d="M128,106c12-37.4,28.4-72.2,47.9-95.3C125,27.6,81.3,63.5,50.2,106H128z"/>
	<path class="st0" d="M384,406c-12,37.4-28.4,72.2-47.9,95.3c50.9-16.9,94.6-52.8,125.7-95.3H384z"/>
	<path class="st0" d="M271,271v105h90.4c8.2-31.8,13.2-67.5,14.3-105H271z"/>
	<path class="st0" d="M392.4,136c7.7,32.1,12.2,67.4,13.2,105H512c-2.2-37.8-14.2-73.4-31.1-105H392.4z"/>
	<path class="st0" d="M271,406v106c32.8-9.2,61.9-51.1,81.1-106H271z"/>
	<path class="st0" d="M512,271H405.6c-1,37.6-5.6,72.9-13.2,105h88.5C497.8,344.4,509.8,308.8,512,271z"/>
</g>
</svg>
