<?xml version="1.0" encoding="utf-8"?>
<!-- Generator: Adobe Illustrator 24.1.3, SVG Export Plug-In . SVG Version: 6.00 Build 0)  -->
<svg version="1.1" id="Capa_1" xmlns="http://www.w3.org/2000/svg" xmlns:xlink="http://www.w3.org/1999/xlink" x="0px" y="0px"
	 viewBox="0 0 512 512" style="enable-background:new 0 0 512 512;" xml:space="preserve">
<style type="text/css">
	.st0{fill:#44004E;}
</style>
<g>
	<path class="st0" d="M377,152h-78c-16-15.6-36.3-25.7-58-28.9V60h32.6c6.2,17.5,22.9,30,42.4,30c24.8,0,45-20.2,45-45
		S340.8,0,316,0c-19.6,0-36.2,12.5-42.4,30h-95.2C172.2,12.5,155.6,0,136,0c-24.8,0-45,20.2-45,45s20.2,45,45,45
		c19.6,0,36.2-12.5,42.4-30H211v63.1c-21.7,3.2-42,13.3-58,28.9H30v-45c0-8.3-6.7-15-15-15S0,98.7,0,107v210c0,8.3,6.7,15,15,15
		s15-6.7,15-15v-45h123c19.6,19.1,45.9,30,73,30s53.4-10.9,73-30h78c8.3,0,15,6.7,15,15v60c0,8.3,6.7,15,15,15h90
		c8.3,0,15-6.7,15-15v-60C512,212.6,451.4,152,377,152z"/>
</g>
</svg>
