<?xml version="1.0" encoding="utf-8"?>
<!-- Generator: Adobe Illustrator 24.1.3, SVG Export Plug-In . SVG Version: 6.00 Build 0)  -->
<svg version="1.1" id="Layer_1" xmlns="http://www.w3.org/2000/svg" xmlns:xlink="http://www.w3.org/1999/xlink" x="0px" y="0px"
	 viewBox="0 0 512 512" style="enable-background:new 0 0 512 512;" xml:space="preserve">
<style type="text/css">
	.st0{fill:#44004E;}
</style>
<g id="name_tag">
	<path class="st0" d="M336,384H176c-26.5,0-48-21.5-48-48V176c0-26.5,21.5-48,48-48h160c26.5,0,48,21.5,48,48v160
		C384,362.5,362.5,384,336,384z M80,160c8.8,0,16-7.2,16-16v-32c0-8.8,7.2-16,16-16h32c8.8,0,16-7.2,16-16s-7.2-16-16-16h-32
		c-26.5,0-48,21.5-48,48v32C64,152.8,71.2,160,80,160z M400,64h-32c-8.8,0-16,7.2-16,16s7.2,16,16,16h32c8.8,0,16,7.2,16,16v32
		c0,8.8,7.2,16,16,16s16-7.2,16-16v-32C448,85.6,426.5,64,400,64z M144,416h-32c-8.8,0-16-7.2-16-16v-32c0-8.8-7.2-16-16-16
		s-16,7.2-16,16v32c0,26.5,21.5,48,48,48h32c8.8,0,16-7.2,16-16S152.8,416,144,416z M432,352c-8.8,0-16,7.2-16,16v32
		c0,8.8-7.2,16-16,16h-32c-8.8,0-16,7.2-16,16s7.2,16,16,16h32c26.5,0,48-21.5,48-48v-32C448,359.2,440.8,352,432,352z"/>
</g>
</svg>
