<?xml version="1.0" encoding="utf-8"?>
<!-- Generator: Adobe Illustrator 24.1.3, SVG Export Plug-In . SVG Version: 6.00 Build 0)  -->
<svg version="1.1" id="Layer_1" xmlns="http://www.w3.org/2000/svg" xmlns:xlink="http://www.w3.org/1999/xlink" x="0px" y="0px"
	 viewBox="0 0 512 512" style="enable-background:new 0 0 512 512;" xml:space="preserve">
<style type="text/css">
	.st0{fill:#44004E;}
</style>
<g>
	<g>
		<path class="st0" d="M500.6,211.5L441.9,197c-3.5-11.1-8.1-21.9-13.5-32.3c8.8-14.7,27.3-45.6,27.3-45.6
			c3.5-5.9,2.6-13.5-2.3-18.3L411,58.4c-4.9-4.9-12.4-5.8-18.3-2.3l-45.6,27.3c-10.3-5.4-21-9.9-32.1-13.4l-14.4-58.7
			C298.9,4.7,292.9,0,286,0h-60c-6.9,0-12.9,4.7-14.5,11.4c0,0-10,41-14.4,58.7c-11.8,3.7-23.2,8.6-34,14.5l-47.3-28.4
			c-5.9-3.5-13.4-2.6-18.3,2.3l-42.4,42.4c-4.9,4.9-5.8,12.4-2.3,18.3l29.3,48.9c-4.7,9.3-8.7,19-11.8,28.9l-58.7,14.5
			C4.7,213.1,0,219.1,0,226v60c0,6.9,4.7,12.9,11.4,14.5L70.1,315c3.6,11.3,8.2,22.3,13.8,32.8l-26.2,43.7
			c-3.5,5.9-2.6,13.5,2.3,18.3l42.4,42.4c4.8,4.8,12.4,5.8,18.3,2.3c0,0,29.4-17.6,43.8-26.2c10.4,5.6,21.3,10.1,32.5,13.7
			l14.4,58.7c1.7,6.7,7.7,11.4,14.5,11.4h60c6.9,0,12.9-4.7,14.5-11.4l14.4-58.7c11.6-3.7,22.7-8.4,33.3-14.1
			c14.8,8.9,44.4,26.7,44.4,26.7c5.9,3.5,13.5,2.6,18.3-2.3l42.4-42.4c4.9-4.9,5.8-12.4,2.3-18.3l-27-44.9
			c5.3-10.1,9.7-20.7,13.2-31.5l58.7-14.4c6.7-1.7,11.4-7.7,11.4-14.5v-60C512,219.1,507.3,213.1,500.6,211.5z M256,361
			c-57.9,0-105-47.1-105-105s47.1-105,105-105s105,47.1,105,105S313.9,361,256,361z"/>
	</g>
</g>
</svg>
