<?xml version="1.0" encoding="utf-8"?>
<!-- Generator: Adobe Illustrator 24.1.3, SVG Export Plug-In . SVG Version: 6.00 Build 0)  -->
<svg version="1.1" id="Layer_1" xmlns="http://www.w3.org/2000/svg" xmlns:xlink="http://www.w3.org/1999/xlink" x="0px" y="0px"
	 viewBox="0 0 512 512" style="enable-background:new 0 0 512 512;" xml:space="preserve">
<style type="text/css">
	.st0{fill:#44004E;}
</style>
<g>
	<path class="st0" d="M64,300.6c4.8,0,9.6-2.1,12.7-6.2l7-9c10.4,61.8,53.7,114.7,115.1,136c18.9,6.6,38.3,9.7,57.5,9.7
		c57.3,0,112.5-28.3,145.6-78.1c4.9-7.4,2.9-17.3-4.5-22.2c-7.4-4.9-17.3-2.9-22.2,4.5c-36,54.3-104.2,77.3-165.8,55.8
		c-51.2-17.8-86.8-62.3-94.4-114l13.7,10.5c7,5.4,17.1,4.1,22.4-2.9c5.4-7,4.1-17-2.9-22.4c0,0-37.8-29.1-37.9-29.2
		c-8-6.1-19.3-9.6-26.5-0.2l-32.3,42c-5.4,7-4.1,17,2.9,22.4C57.1,299.5,60.6,300.6,64,300.6L64,300.6z"/>
	<path class="st0" d="M114.7,181.3c7.3,4.9,17.3,2.9,22.2-4.5c36-54.3,104.3-77.3,165.8-55.8c51.2,17.8,86.8,62.3,94.4,114
		l-13.7-10.5c-7-5.4-17.1-4.1-22.4,2.9c-5.4,7-4.1,17,2.9,22.4c0,0,37.8,29.1,37.9,29.2c8.1,6.2,19.2,9.7,26.5,0.2l32.3-42
		c5.4-7,4.1-17-2.9-22.4s-17.1-4.1-22.4,2.9l-7,9c-10.4-61.8-53.7-114.7-115.1-136c-75.5-26.2-159,1.9-203,68.4
		C105.3,166.5,107.3,176.4,114.7,181.3z"/>
</g>
</svg>
