<svg width="225" height="167" viewBox="0 0 225 167" fill="none" xmlns="http://www.w3.org/2000/svg">
<path d="M94.3583 166.677C93.5613 166.571 91.7016 166.039 90.7452 164.977L90.3733 164.605L3.28763 86.1799C1.74676 84.5859 0.843493 82.9919 0.79036 81.6104L0.737225 81.1854L0.684093 80.7603C0.577826 79.9633 0.896626 79.06 1.58736 78.1568C3.44703 76.7222 5.35983 75.5001 7.0601 75.5001C8.28217 75.5001 8.86663 75.9783 9.2917 76.4565L9.71677 76.9347L92.3923 151.64L214.599 3.18552C216.512 1.64465 218.318 0.847656 219.806 0.847656C220.975 0.847656 221.347 1.06019 222.038 1.80405L222.25 2.01659L222.463 2.22912C224.11 3.87626 224.694 6.0016 224.907 7.48933C225.013 8.3926 224.588 9.45527 223.685 10.4648L223.472 10.6773L96.2711 165.721C95.4209 166.252 94.7302 166.571 94.3583 166.677Z" fill="#44004E"/>
</svg>
