<svg width="15" height="13" viewBox="0 0 15 13" fill="none" xmlns="http://www.w3.org/2000/svg">
<path d="M2.34375 9.78125H0.46875C0.34443 9.78125 0.225201 9.83064 0.137294 9.91854C0.049386 10.0065 0 10.1257 0 10.25L0 12.125C0 12.2493 0.049386 12.3685 0.137294 12.4565C0.225201 12.5444 0.34443 12.5938 0.46875 12.5938H2.34375C2.46807 12.5938 2.5873 12.5444 2.67521 12.4565C2.76311 12.3685 2.8125 12.2493 2.8125 12.125V10.25C2.8125 10.1257 2.76311 10.0065 2.67521 9.91854C2.5873 9.83064 2.46807 9.78125 2.34375 9.78125ZM2.34375 0.40625H0.46875C0.34443 0.40625 0.225201 0.455636 0.137294 0.543544C0.049386 0.631451 0 0.75068 0 0.875L0 2.75C0 2.87432 0.049386 2.99355 0.137294 3.08146C0.225201 3.16936 0.34443 3.21875 0.46875 3.21875H2.34375C2.46807 3.21875 2.5873 3.16936 2.67521 3.08146C2.76311 2.99355 2.8125 2.87432 2.8125 2.75V0.875C2.8125 0.75068 2.76311 0.631451 2.67521 0.543544C2.5873 0.455636 2.46807 0.40625 2.34375 0.40625ZM2.34375 5.09375H0.46875C0.34443 5.09375 0.225201 5.14314 0.137294 5.23104C0.049386 5.31895 0 5.43818 0 5.5625L0 7.4375C0 7.56182 0.049386 7.68105 0.137294 7.76896C0.225201 7.85686 0.34443 7.90625 0.46875 7.90625H2.34375C2.46807 7.90625 2.5873 7.85686 2.67521 7.76896C2.76311 7.68105 2.8125 7.56182 2.8125 7.4375V5.5625C2.8125 5.43818 2.76311 5.31895 2.67521 5.23104C2.5873 5.14314 2.46807 5.09375 2.34375 5.09375ZM14.5312 10.25H5.15625C5.03193 10.25 4.9127 10.2994 4.82479 10.3873C4.73689 10.4752 4.6875 10.5944 4.6875 10.7188V11.6562C4.6875 11.7806 4.73689 11.8998 4.82479 11.9877C4.9127 12.0756 5.03193 12.125 5.15625 12.125H14.5312C14.6556 12.125 14.7748 12.0756 14.8627 11.9877C14.9506 11.8998 15 11.7806 15 11.6562V10.7188C15 10.5944 14.9506 10.4752 14.8627 10.3873C14.7748 10.2994 14.6556 10.25 14.5312 10.25ZM14.5312 0.875H5.15625C5.03193 0.875 4.9127 0.924386 4.82479 1.01229C4.73689 1.1002 4.6875 1.21943 4.6875 1.34375V2.28125C4.6875 2.40557 4.73689 2.5248 4.82479 2.61271C4.9127 2.70061 5.03193 2.75 5.15625 2.75H14.5312C14.6556 2.75 14.7748 2.70061 14.8627 2.61271C14.9506 2.5248 15 2.40557 15 2.28125V1.34375C15 1.21943 14.9506 1.1002 14.8627 1.01229C14.7748 0.924386 14.6556 0.875 14.5312 0.875ZM14.5312 5.5625H5.15625C5.03193 5.5625 4.9127 5.61189 4.82479 5.69979C4.73689 5.7877 4.6875 5.90693 4.6875 6.03125V6.96875C4.6875 7.09307 4.73689 7.2123 4.82479 7.30021C4.9127 7.38811 5.03193 7.4375 5.15625 7.4375H14.5312C14.6556 7.4375 14.7748 7.38811 14.8627 7.30021C14.9506 7.2123 15 7.09307 15 6.96875V6.03125C15 5.90693 14.9506 5.7877 14.8627 5.69979C14.7748 5.61189 14.6556 5.5625 14.5312 5.5625Z" fill="#4D00BA"/>
</svg>
