<svg width="173" height="141" viewBox="0 0 173 141" fill="none" xmlns="http://www.w3.org/2000/svg">
<path d="M27.0312 108.344H5.40625C3.97242 108.344 2.59732 108.913 1.58345 109.927C0.569586 110.941 0 112.316 0 113.75L0 135.375C0 136.809 0.569586 138.184 1.58345 139.198C2.59732 140.212 3.97242 140.781 5.40625 140.781H27.0312C28.4651 140.781 29.8402 140.212 30.854 139.198C31.8679 138.184 32.4375 136.809 32.4375 135.375V113.75C32.4375 112.316 31.8679 110.941 30.854 109.927C29.8402 108.913 28.4651 108.344 27.0312 108.344ZM27.0312 0.21875H5.40625C3.97242 0.21875 2.59732 0.788335 1.58345 1.8022C0.569586 2.81607 0 4.19117 0 5.625L0 27.25C0 28.6838 0.569586 30.0589 1.58345 31.0728C2.59732 32.0867 3.97242 32.6562 5.40625 32.6562H27.0312C28.4651 32.6562 29.8402 32.0867 30.854 31.0728C31.8679 30.0589 32.4375 28.6838 32.4375 27.25V5.625C32.4375 4.19117 31.8679 2.81607 30.854 1.8022C29.8402 0.788335 28.4651 0.21875 27.0312 0.21875V0.21875ZM27.0312 54.2812H5.40625C3.97242 54.2812 2.59732 54.8508 1.58345 55.8647C0.569586 56.8786 0 58.2537 0 59.6875L0 81.3125C0 82.7463 0.569586 84.1214 1.58345 85.1353C2.59732 86.1492 3.97242 86.7188 5.40625 86.7188H27.0312C28.4651 86.7188 29.8402 86.1492 30.854 85.1353C31.8679 84.1214 32.4375 82.7463 32.4375 81.3125V59.6875C32.4375 58.2537 31.8679 56.8786 30.854 55.8647C29.8402 54.8508 28.4651 54.2812 27.0312 54.2812ZM167.594 113.75H59.4688C58.0349 113.75 56.6598 114.32 55.646 115.333C54.6321 116.347 54.0625 117.722 54.0625 119.156V129.969C54.0625 131.403 54.6321 132.778 55.646 133.792C56.6598 134.805 58.0349 135.375 59.4688 135.375H167.594C169.028 135.375 170.403 134.805 171.417 133.792C172.43 132.778 173 131.403 173 129.969V119.156C173 117.722 172.43 116.347 171.417 115.333C170.403 114.32 169.028 113.75 167.594 113.75ZM167.594 5.625H59.4688C58.0349 5.625 56.6598 6.19459 55.646 7.20845C54.6321 8.22232 54.0625 9.59742 54.0625 11.0312V21.8438C54.0625 23.2776 54.6321 24.6527 55.646 25.6665C56.6598 26.6804 58.0349 27.25 59.4688 27.25H167.594C169.028 27.25 170.403 26.6804 171.417 25.6665C172.43 24.6527 173 23.2776 173 21.8438V11.0312C173 9.59742 172.43 8.22232 171.417 7.20845C170.403 6.19459 169.028 5.625 167.594 5.625V5.625ZM167.594 59.6875H59.4688C58.0349 59.6875 56.6598 60.2571 55.646 61.271C54.6321 62.2848 54.0625 63.6599 54.0625 65.0938V75.9062C54.0625 77.3401 54.6321 78.7152 55.646 79.7291C56.6598 80.7429 58.0349 81.3125 59.4688 81.3125H167.594C169.028 81.3125 170.403 80.7429 171.417 79.7291C172.43 78.7152 173 77.3401 173 75.9062V65.0938C173 63.6599 172.43 62.2848 171.417 61.271C170.403 60.2571 169.028 59.6875 167.594 59.6875Z" fill="#44004E"/>
</svg>
