<svg width="16" height="19" viewBox="0 0 16 19" fill="none" xmlns="http://www.w3.org/2000/svg">
<path d="M15.3828 2.57031C15.6992 2.92188 15.875 3.30859 15.875 3.76562V13.1875C15.875 13.6797 15.6992 14.0664 15.3828 14.3828C15.0312 14.7344 14.6445 14.875 14.1875 14.875H11.375V16.5625C11.375 17.0547 11.1992 17.4414 10.8828 17.7578C10.5312 18.1094 10.1445 18.25 9.6875 18.25H1.8125C1.32031 18.25 0.933594 18.1094 0.617188 17.7578C0.265625 17.4414 0.125 17.0547 0.125 16.5625V5.3125C0.125 4.85547 0.265625 4.46875 0.617188 4.11719C0.933594 3.80078 1.32031 3.625 1.8125 3.625H4.625V1.9375C4.625 1.48047 4.76562 1.09375 5.11719 0.742188C5.43359 0.425781 5.82031 0.25 6.3125 0.25H12.3594C12.8164 0.25 13.2031 0.425781 13.5547 0.742188L15.3828 2.57031ZM9.47656 16.5625C9.51172 16.5625 9.54688 16.5625 9.61719 16.4922C9.65234 16.457 9.6875 16.4219 9.6875 16.3516V14.875H6.3125C5.82031 14.875 5.43359 14.7344 5.11719 14.3828C4.76562 14.0664 4.625 13.6797 4.625 13.1875V5.3125H2.02344C1.95312 5.3125 1.91797 5.34766 1.88281 5.38281C1.8125 5.45312 1.8125 5.48828 1.8125 5.52344V16.3516C1.8125 16.4219 1.8125 16.457 1.88281 16.4922C1.91797 16.5625 1.95312 16.5625 2.02344 16.5625H9.47656ZM13.9766 13.1875C14.0117 13.1875 14.0469 13.1875 14.1172 13.1172C14.1523 13.082 14.1875 13.0469 14.1875 12.9766V5.875H11.0938C10.8477 5.875 10.6367 5.80469 10.4961 5.62891C10.3203 5.48828 10.25 5.27734 10.25 5.03125V1.9375H6.52344C6.45312 1.9375 6.41797 1.97266 6.38281 2.00781C6.3125 2.07812 6.3125 2.11328 6.3125 2.14844V12.9766C6.3125 13.0469 6.3125 13.082 6.38281 13.1172C6.41797 13.1875 6.45312 13.1875 6.52344 13.1875H13.9766ZM14.1875 4.1875V3.83594C14.1875 3.80078 14.1523 3.76562 14.1172 3.69531L12.4297 2.00781C12.3594 1.97266 12.3242 1.9375 12.2891 1.9375H11.9375V4.1875H14.1875Z" fill="white"/>
</svg>
