<svg width="21" height="18" viewBox="0 0 21 18" fill="none" xmlns="http://www.w3.org/2000/svg">
<path d="M18.3362 4.04069H3.37109C3.02405 4.04069 2.74297 3.75862 2.74297 3.41037C2.74297 3.06212 3.02405 2.78005 3.37109 2.78005H18.4461C18.7931 2.78005 19.0742 2.49799 19.0742 2.14974C19.0742 1.10538 18.2306 0.258789 17.1898 0.258789H2.74297C1.35521 0.258789 0.230469 1.38745 0.230469 2.78005V15.3864C0.230469 16.779 1.35521 17.9076 2.74297 17.9076H18.3362C19.4362 17.9076 20.3305 17.0595 20.3305 16.0167V5.93164C20.3305 4.88886 19.4362 4.04069 18.3362 4.04069ZM16.5617 12.2348C15.868 12.2348 15.3055 11.6703 15.3055 10.9742C15.3055 10.2781 15.868 9.71353 16.5617 9.71353C17.2554 9.71353 17.818 10.2781 17.818 10.9742C17.818 11.6703 17.2554 12.2348 16.5617 12.2348Z" fill="#480052"/>
</svg>
