<svg width="20" height="20" viewBox="0 0 20 20" fill="none" xmlns="http://www.w3.org/2000/svg">
<path d="M13.4608 6.22372C12.9059 2.80596 11.597 0.40625 10.0737 0.40625C8.55044 0.40625 7.24151 2.80596 6.68655 6.22372H13.4608ZM6.3995 9.89792C6.3995 10.7476 6.44543 11.5628 6.5258 12.3474H13.6178C13.6981 11.5628 13.7441 10.7476 13.7441 9.89792C13.7441 9.04826 13.6981 8.23305 13.6178 7.44845H6.5258C6.44543 8.23305 6.3995 9.04826 6.3995 9.89792ZM18.8267 6.22372C17.7321 3.625 15.5161 1.61567 12.7796 0.804288C13.7134 2.09791 14.3564 4.046 14.6932 6.22372H18.8267ZM7.36398 0.804288C4.6313 1.61567 2.41147 3.625 1.3207 6.22372H5.45416C5.78714 4.046 6.43012 2.09791 7.36398 0.804288ZM19.2362 7.44845H14.8463C14.9267 8.25218 14.9726 9.07505 14.9726 9.89792C14.9726 10.7208 14.9267 11.5436 14.8463 12.3474H19.2324C19.4429 11.5628 19.5615 10.7476 19.5615 9.89792C19.5615 9.04826 19.4429 8.23305 19.2362 7.44845ZM5.17477 9.89792C5.17477 9.07505 5.2207 8.25218 5.30107 7.44845H0.911178C0.704504 8.23305 0.582031 9.04826 0.582031 9.89792C0.582031 10.7476 0.704504 11.5628 0.911178 12.3474H5.29725C5.2207 11.5436 5.17477 10.7208 5.17477 9.89792ZM6.68655 13.5721C7.24151 16.9899 8.55044 19.3896 10.0737 19.3896C11.597 19.3896 12.9059 16.9899 13.4608 13.5721H6.68655ZM12.7834 18.9915C15.5161 18.1802 17.7359 16.1708 18.8305 13.5721H14.6971C14.3603 15.7498 13.7173 17.6979 12.7834 18.9915ZM1.3207 13.5721C2.4153 16.1708 4.6313 18.1802 7.36781 18.9915C6.43395 17.6979 5.79097 15.7498 5.45416 13.5721H1.3207Z" fill="#480052"/>
</svg>
