<svg width="22" height="17" viewBox="0 0 22 17" fill="none" xmlns="http://www.w3.org/2000/svg">
<path d="M14.8677 8.48498H13.2678C12.6168 7.9261 11.7983 7.52565 10.8896 7.32065V5.34294L9.56354 5.20239L8.2375 5.34294V7.32065C7.32875 7.52856 6.51033 7.92776 5.85933 8.48498H0.944271C0.768427 8.48498 0.599785 8.55508 0.475444 8.67985C0.351104 8.80463 0.28125 8.97386 0.28125 9.15032L0.28125 13.1423C0.28125 13.3188 0.351104 13.488 0.475444 13.6128C0.599785 13.7376 0.768427 13.8077 0.944271 13.8077H4.78938C5.6426 15.3766 7.45016 16.469 9.56354 16.469C11.6769 16.469 13.4845 15.3766 14.3377 13.8077H14.8677C15.2194 13.8077 15.5567 13.9478 15.8054 14.1974C16.054 14.4469 16.1938 14.7854 16.1938 15.1383C16.1938 15.4912 16.3335 15.8297 16.5821 16.0792C16.8308 16.3288 17.1681 16.469 17.5198 16.469H20.1719C20.5236 16.469 20.8608 16.3288 21.1095 16.0792C21.3582 15.8297 21.4979 15.4912 21.4979 15.1383C21.4979 13.3737 20.7994 11.6814 19.556 10.4337C18.3126 9.18596 16.6261 8.48498 14.8677 8.48498ZM3.66224 4.48924L9.56354 3.86549L15.4648 4.48924C15.8552 4.53082 16.1938 4.20605 16.1938 3.79064V2.53399C16.1938 2.11815 15.8552 1.7938 15.4648 1.83497L10.8896 2.31983V1.16631C10.8896 0.989853 10.8197 0.820623 10.6954 0.695848C10.571 0.571074 10.4024 0.500977 10.2266 0.500977H8.90052C8.72468 0.500977 8.55604 0.571074 8.43169 0.695848C8.30735 0.820623 8.2375 0.989853 8.2375 1.16631V2.31983L3.66224 1.83497C3.27189 1.7938 2.93333 2.11857 2.93333 2.53399V3.79064C2.93333 4.20605 3.27189 4.53082 3.66224 4.48924Z" fill="#480052"/>
</svg>
