<svg width="16" height="17" viewBox="0 0 16 17" fill="none" xmlns="http://www.w3.org/2000/svg">
<path d="M1.58711 9.7677L0.812422 8.99301C0.484401 8.66499 0.484401 8.13457 0.812422 7.81004L7.59268 1.02629C7.9207 0.698268 8.45112 0.698268 8.77565 1.02629L15.5559 7.80655C15.8839 8.13457 15.8839 8.66499 15.5559 8.98952L14.7812 9.7642C14.4497 10.0957 13.9088 10.0887 13.5843 9.75025L9.58175 5.54879V15.5779C9.58175 16.042 9.20836 16.4154 8.74425 16.4154H7.62758C7.16346 16.4154 6.79008 16.042 6.79008 15.5779V5.54879L2.78404 9.75374C2.45951 10.0957 1.91862 10.1027 1.58711 9.7677Z" fill="#480052"/>
</svg>
