<svg width="19" height="20" viewBox="0 0 19 20" fill="none" xmlns="http://www.w3.org/2000/svg">
<path d="M18.6505 12.3865L16.9602 11.407C17.1308 10.4832 17.1308 9.53555 16.9602 8.61179L18.6505 7.63229C18.8449 7.5208 18.9322 7.28986 18.8687 7.07485C18.4283 5.65736 17.6783 4.37525 16.6983 3.30815C16.5475 3.1449 16.3015 3.10508 16.111 3.21657L14.4207 4.19607C13.7105 3.58289 12.8931 3.10907 12.0082 2.79849V0.843472C12.0082 0.620496 11.8535 0.425392 11.6353 0.377612C10.179 0.0511115 8.68712 0.0670384 7.30233 0.377612C7.0841 0.425392 6.92935 0.620496 6.92935 0.843472V2.80247C6.04848 3.11703 5.2311 3.59085 4.51688 4.20005L2.83053 3.22055C2.6361 3.10907 2.39406 3.1449 2.24328 3.31213C1.26321 4.37525 0.513283 5.65736 0.0728474 7.07883C0.0053934 7.29384 0.0966547 7.52478 0.291081 7.63627L1.9814 8.61577C1.81078 9.53953 1.81078 10.4872 1.9814 11.4109L0.291081 12.3904C0.0966547 12.5019 0.00936128 12.7329 0.0728474 12.9479C0.513283 14.3654 1.26321 15.6475 2.24328 16.7146C2.39406 16.8778 2.64007 16.9176 2.83053 16.8062L4.52085 15.8267C5.2311 16.4398 6.04848 16.9137 6.93332 17.2242V19.1832C6.93332 19.4062 7.08807 19.6013 7.3063 19.6491C8.76251 19.9756 10.2544 19.9597 11.6392 19.6491C11.8575 19.6013 12.0122 19.4062 12.0122 19.1832V17.2242C12.8931 16.9097 13.7105 16.4359 14.4247 15.8267L16.115 16.8062C16.3094 16.9176 16.5515 16.8818 16.7022 16.7146C17.6823 15.6515 18.4322 14.3693 18.8727 12.9479C18.9322 12.7289 18.8449 12.4979 18.6505 12.3865ZM9.4688 13.1947C7.71896 13.1947 6.29449 11.7653 6.29449 10.0094C6.29449 8.25344 7.71896 6.824 9.4688 6.824C11.2186 6.824 12.6431 8.25344 12.6431 10.0094C12.6431 11.7653 11.2186 13.1947 9.4688 13.1947Z" fill="#480052"/>
</svg>
