<svg width="17" height="16" viewBox="0 0 17 16" fill="none" xmlns="http://www.w3.org/2000/svg">
<path d="M12.8731 8.36119C12.8731 8.70787 12.5858 8.99513 12.2391 8.99513H9.70334V11.5309C9.70334 11.8776 9.41608 12.1648 9.0694 12.1648H7.80151C7.45482 12.1648 7.16756 11.8776 7.16756 11.5309V8.99513H4.63179C4.2851 8.99513 3.99784 8.70787 3.99784 8.36119V7.0933C3.99784 6.74661 4.2851 6.45935 4.63179 6.45935H7.16756V3.92358C7.16756 3.57689 7.45482 3.28963 7.80151 3.28963H9.0694C9.41608 3.28963 9.70334 3.57689 9.70334 3.92358V6.45935H12.2391C12.5858 6.45935 12.8731 6.74661 12.8731 7.0933V8.36119ZM16.0428 7.72724C16.0428 3.52736 12.6353 0.119914 8.43545 0.119914C4.23557 0.119914 0.828125 3.52736 0.828125 7.72724C0.828125 11.9271 4.23557 15.3346 8.43545 15.3346C12.6353 15.3346 16.0428 11.9271 16.0428 7.72724Z" fill="black"/>
</svg>
