<svg width="24" height="24" viewBox="0 0 24 24" fill="none" xmlns="http://www.w3.org/2000/svg">
<path d="M14.0504 22H7.06885C5.92042 22 4.98682 21.0664 4.98682 19.9179V4.08203C4.98682 2.93361 5.92042 2 7.06885 2H17.0993C17.3298 2 17.5173 2.1875 17.5173 2.41796C17.5173 2.64843 17.3298 2.83203 17.0993 2.83203H7.06885C6.38135 2.83203 5.81885 3.39453 5.81885 4.08203V19.914C5.81885 20.6015 6.38135 21.164 7.06885 21.164H14.0465C14.277 21.164 14.4645 21.3515 14.4645 21.582C14.4645 21.8125 14.2809 22 14.0504 22Z" fill="#44004E"/>
<path d="M20.4344 16.8393C20.204 16.8393 20.0165 16.6518 20.0165 16.4213V4.08203C20.0165 3.39453 19.454 2.83203 18.7665 2.83203H17.0985C16.868 2.83203 16.6805 2.64453 16.6805 2.41407C16.6805 2.18361 16.8719 2 17.1024 2H18.7704C19.9188 2 20.8524 2.93361 20.8524 4.08203V16.4213C20.8524 16.6518 20.6649 16.8393 20.4344 16.8393Z" fill="#44004E"/>
<path d="M13.0768 12.2299C12.4791 12.2299 11.9127 11.9955 11.483 11.5658C11.0573 11.14 10.819 10.5737 10.819 9.97208C10.819 9.37444 11.0534 8.80801 11.483 8.37833C11.8971 7.95644 12.4791 7.71426 13.0768 7.71426C13.6745 7.71426 14.2409 7.94866 14.6705 8.37833C15.1002 8.80801 15.3346 9.37051 15.3346 9.97208C15.3346 10.5737 15.1002 11.1362 14.6705 11.5658C14.2409 11.9955 13.6783 12.2299 13.0768 12.2299ZM13.0768 8.10491C12.5729 8.10491 12.1041 8.30023 11.7526 8.6518C11.401 9.00337 11.2057 9.47601 11.2057 9.97601C11.2057 10.4799 11.401 10.9487 11.7526 11.3002C12.1041 11.6518 12.5768 11.8471 13.0768 11.8471C13.5807 11.8471 14.0494 11.6518 14.401 11.3002C14.7526 10.9487 14.9479 10.476 14.9479 9.97601C14.9479 9.47212 14.7526 9.00337 14.401 8.6518C14.0494 8.30023 13.5807 8.10491 13.0768 8.10491Z" fill="#44004E" stroke="#44004E" stroke-width="0.5" stroke-miterlimit="10"/>
<path d="M9.2838 15.4154V14.9544C9.2838 14.3646 9.48694 13.7786 9.85019 13.3099C10.2135 12.8373 10.733 12.4974 11.3111 12.3529C11.3228 12.349 11.3385 12.349 11.3502 12.349C11.4244 12.349 11.4947 12.3919 11.526 12.4584C11.69 12.724 11.9088 12.9349 12.1744 13.0834C12.44 13.2357 12.7369 13.3138 13.0572 13.3138C13.3619 13.3138 13.6666 13.2318 13.94 13.0834C14.2096 12.9349 14.44 12.7123 14.6002 12.4427C14.6353 12.3841 14.6939 12.349 14.7603 12.349C14.7799 12.349 14.7994 12.3529 14.815 12.3568C15.3853 12.5052 15.9009 12.8451 16.2681 13.3138C16.6393 13.7904 16.8345 14.3607 16.8345 14.9584V15.388H16.815C16.7603 15.3841 16.7017 15.3841 16.647 15.3841C16.5884 15.3841 16.5337 15.3802 16.4751 15.3763H16.4556V14.9584C16.4556 14.4427 16.2876 13.9584 15.9712 13.5482C15.6821 13.1771 15.2954 12.9076 14.8423 12.7591C14.6548 13.0248 14.4126 13.2435 14.1236 13.4115C13.7915 13.5951 13.4322 13.6889 13.0533 13.6889C12.6743 13.6889 12.315 13.5951 11.9829 13.4115C11.6939 13.2474 11.4517 13.0287 11.2642 12.7591C10.8189 12.9037 10.4283 13.1771 10.1431 13.5482C9.82669 13.9545 9.65869 14.4428 9.65869 14.9584V15.4193H9.28369V15.4154H9.2838Z" fill="#44004E" stroke="#44004E" stroke-width="0.5" stroke-miterlimit="10"/>
<path d="M13.3494 21.582C13.3494 21.3515 13.5369 21.164 13.7673 21.164H18.7673C19.4548 21.164 20.0173 20.6015 20.0173 19.914V18.6002C20.0173 18.3698 20.2048 18.1823 20.4353 18.1823C20.6657 18.1823 20.8494 18.3737 20.8494 18.6042V19.918C20.8494 21.0664 19.9157 22 18.7673 22H13.7673C13.5369 22 13.3494 21.8125 13.3494 21.582Z" fill="#44004E"/>
<path d="M7.53911 11.6785H3.56555C3.33508 11.6785 3.14758 11.491 3.14758 11.2606C3.14758 11.0301 3.33508 10.8426 3.56555 10.8426H7.53911C7.76958 10.8426 7.95707 11.0301 7.95707 11.2606C7.95707 11.491 7.76961 11.6785 7.53911 11.6785Z" fill="#44004E"/>
<path d="M7.53911 9.5357H3.56555C3.33508 9.5357 3.14758 9.3482 3.14758 9.11773C3.14758 8.88727 3.33508 8.69977 3.56555 8.69977H7.53911C7.76958 8.69977 7.95707 8.88727 7.95707 9.11773C7.95707 9.3482 7.76961 9.5357 7.53911 9.5357Z" fill="#44004E"/>
<path d="M7.53911 13.8214H3.56555C3.33508 13.8214 3.14758 13.6339 3.14758 13.4034C3.14758 13.173 3.33508 12.9855 3.56555 12.9855H7.53911C7.76958 12.9855 7.95707 13.173 7.95707 13.4034C7.95707 13.6339 7.76961 13.8214 7.53911 13.8214Z" fill="#44004E"/>
</svg>
