<svg width="273" height="273" viewBox="0 0 273 273" fill="none" xmlns="http://www.w3.org/2000/svg">
<path d="M113.481 76.6836C112.153 76.6836 111.09 75.6209 111.09 74.2926C111.09 72.9643 112.153 71.9016 113.481 71.9016H168.155L157.05 60.903C156.2 59.9997 156.2 58.512 157.05 57.6087C157.475 57.1305 158.113 56.918 158.75 56.918C159.388 56.918 159.919 57.1305 160.344 57.5556L175.434 72.6455C175.859 73.0705 176.125 73.7081 176.125 74.3457C176.125 74.9833 175.859 75.6209 175.434 76.046C175.009 76.4711 174.372 76.7367 173.734 76.7367L113.481 76.6836Z" fill="#FF00FF"/>
<path d="M114.332 102.401C113.695 102.401 113.164 102.188 112.632 101.763L97.5423 86.6733C97.1172 86.2482 96.8516 85.6106 96.8516 84.973C96.8516 84.3354 97.1172 83.6978 97.5423 83.2728C97.9674 82.8477 98.605 82.582 99.2426 82.582H159.602C160.93 82.582 161.993 83.6447 161.993 84.973C161.993 86.3014 160.93 87.364 159.602 87.364H104.928L116.033 98.4689C116.883 99.3722 116.883 100.86 116.033 101.763C115.608 102.135 115.023 102.401 114.332 102.401Z" fill="#FF00FF"/>
<path d="M177.294 183.27C175.966 183.27 174.903 182.207 174.903 180.879C174.903 179.55 175.966 178.488 177.294 178.488H231.969L220.864 167.489C220.014 166.586 220.014 165.098 220.864 164.195C221.289 163.716 221.926 163.504 222.564 163.504C223.202 163.504 223.733 163.716 224.264 164.195L239.354 179.285C239.779 179.71 240.045 180.347 240.045 180.985C240.045 181.622 239.779 182.26 239.354 182.685C238.929 183.11 238.291 183.376 237.654 183.376L177.294 183.27Z" fill="#FF00FF"/>
<path d="M178.145 208.986C177.508 208.986 176.976 208.774 176.551 208.295L161.461 193.206C161.036 192.78 160.771 192.143 160.771 191.505C160.771 190.868 161.036 190.23 161.461 189.805C161.886 189.38 162.524 189.114 163.162 189.114H223.521C224.849 189.114 225.912 190.177 225.912 191.505C225.912 192.834 224.849 193.896 223.521 193.896H168.847L179.952 205.001C180.802 205.904 180.802 207.392 179.952 208.295C179.42 208.72 178.836 208.986 178.145 208.986Z" fill="#FF00FF"/>
<path d="M48.2875 183.96C46.9592 183.96 45.8965 182.897 45.8965 181.569C45.8965 180.241 46.9592 179.178 48.2875 179.178H102.962L91.91 168.179C91.0599 167.276 91.0599 165.788 91.91 164.885C92.3351 164.407 92.9727 164.194 93.6103 164.194C94.2479 164.194 94.7792 164.407 95.3105 164.885L110.4 179.975C110.826 180.4 111.091 181.038 111.091 181.675C111.091 183.004 110.028 184.066 108.7 184.066L48.2875 183.96Z" fill="#FF00FF"/>
<path d="M49.1371 209.677C48.4995 209.677 47.9682 209.464 47.4369 208.986L32.347 193.896C31.9219 193.471 31.6562 192.833 31.6562 192.196C31.6562 190.867 32.7189 189.805 34.0473 189.805H94.4068C95.7351 189.805 96.7978 190.867 96.7978 192.196C96.7978 193.524 95.7351 194.587 94.4068 194.587H39.7325L50.8374 205.692C51.6875 206.595 51.6875 208.083 50.8374 208.986C50.3592 209.411 49.8279 209.677 49.1371 209.677Z" fill="#FF00FF"/>
<path d="M135.371 152.452C174.869 152.452 206.889 120.433 206.889 80.9345C206.889 41.4365 174.869 9.41699 135.371 9.41699C95.873 9.41699 63.8535 41.4365 63.8535 80.9345C63.8535 120.433 95.873 152.452 135.371 152.452Z" stroke="#44004E" stroke-width="5.31334" stroke-miterlimit="10"/>
<path d="M75.7568 256.966C115.255 256.966 147.274 224.946 147.274 185.448C147.274 145.95 115.255 113.931 75.7568 113.931C36.2588 113.931 4.23926 145.95 4.23926 185.448C4.23926 224.946 36.2588 256.966 75.7568 256.966Z" stroke="#44004E" stroke-width="5.31334" stroke-miterlimit="10"/>
<path d="M197.803 256.966C237.301 256.966 269.32 224.946 269.32 185.448C269.32 145.95 237.301 113.931 197.803 113.931C158.305 113.931 126.285 145.95 126.285 185.448C126.285 224.946 158.305 256.966 197.803 256.966Z" stroke="#44004E" stroke-width="5.31334" stroke-miterlimit="10"/>
</svg>
