<svg width="15" height="16" viewBox="0 0 15 16" fill="none" xmlns="http://www.w3.org/2000/svg">
<path d="M6.96438 5.87469C6.96438 5.78132 6.90213 5.68795 6.83988 5.6257C6.77764 5.56345 6.68426 5.5012 6.59089 5.5012H5.84391C5.71942 5.5012 5.62604 5.56345 5.5638 5.6257C5.50155 5.68795 5.47042 5.78132 5.47042 5.87469V12.5975C5.47042 12.722 5.50155 12.8154 5.5638 12.8776C5.62604 12.9399 5.71942 12.971 5.84391 12.971H6.59089C6.68426 12.971 6.77764 12.9399 6.83988 12.8776C6.90213 12.8154 6.96438 12.722 6.96438 12.5975V5.87469ZM10.0768 5.5012C10.1702 5.5012 10.2635 5.56345 10.3258 5.6257C10.388 5.68795 10.4503 5.78132 10.4503 5.87469V12.5975C10.4503 12.722 10.388 12.8154 10.3258 12.8776C10.2635 12.9399 10.1702 12.971 10.0768 12.971H9.32981C9.20532 12.971 9.11194 12.9399 9.0497 12.8776C8.98745 12.8154 8.95632 12.722 8.95632 12.5975V5.87469C8.95632 5.78132 8.98745 5.68795 9.0497 5.6257C9.11194 5.56345 9.20532 5.5012 9.32981 5.5012H10.0768ZM14.1852 2.51329H11.882L10.8238 0.739215C10.6682 0.521346 10.4814 0.334602 10.2635 0.210105C10.0145 0.0856086 9.76555 0.0233604 9.51656 0.0233604H6.40415C6.12403 0.0233604 5.87504 0.0856086 5.65717 0.210105C5.40817 0.334602 5.22143 0.521346 5.09693 0.739215L4.03871 2.51329H1.73553C1.51766 2.51329 1.33092 2.60666 1.20642 2.73116C1.0508 2.88678 0.98855 3.07352 0.98855 3.26027V3.63376C0.98855 3.75825 1.01967 3.85163 1.08192 3.91387C1.14417 3.97612 1.23754 4.00725 1.36204 4.00725H1.98452V14.465C1.98452 14.9007 2.10902 15.2431 2.42026 15.5232C2.70038 15.8344 3.04274 15.9589 3.47848 15.9589H12.4422C12.8468 15.9589 13.1892 15.8344 13.5004 15.5232C13.7806 15.2431 13.9362 14.9007 13.9362 14.465V4.00725H14.5587C14.652 4.00725 14.7454 3.97612 14.8077 3.91387C14.8699 3.85163 14.9322 3.75825 14.9322 3.63376V3.26027C14.9322 3.07352 14.8388 2.88678 14.7143 2.73116C14.5587 2.60666 14.3719 2.51329 14.1852 2.51329ZM5.78166 2.51329L6.3419 1.61069C6.37302 1.54844 6.43527 1.51732 6.49752 1.51732H9.42319C9.48543 1.51732 9.51656 1.54844 9.57881 1.61069L10.139 2.51329H5.78166ZM12.4422 4.00725V14.2782C12.4422 14.3405 12.4111 14.3716 12.38 14.4027C12.3177 14.465 12.2866 14.465 12.2555 14.465H3.66522C3.60298 14.465 3.57185 14.465 3.54073 14.4027C3.47848 14.3716 3.47848 14.3405 3.47848 14.2782V4.00725H12.4422Z" fill="#44004E"/>
</svg>
