<?xml version="1.0" encoding="utf-8"?>
<!-- Generator: Adobe Illustrator 24.1.3, SVG Export Plug-In . SVG Version: 6.00 Build 0)  -->
<svg version="1.1" id="_x31_" xmlns="http://www.w3.org/2000/svg" xmlns:xlink="http://www.w3.org/1999/xlink" x="0px" y="0px"
	 viewBox="0 0 512 512" style="enable-background:new 0 0 512 512;" xml:space="preserve">
<style type="text/css">
	.st0{fill:#FFFFFF;}
</style>
<path class="st0" d="M253.7,512c-2.8,0-5.5-1.1-7.6-3.1c-2.5-2.5-3.6-6.1-2.9-9.6l15.1-75.4c0.4-2.1,1.4-4,2.9-5.5l165.9-165.9
	c12.5-12.5,32.8-12.5,45.2,0l30.2,30.2c12.5,12.5,12.5,32.8,0,45.2L336.7,493.8c-1.5,1.5-3.4,2.5-5.5,2.9l-75.4,15.1
	C255.1,511.9,254.4,512,253.7,512z M278.7,431.2l-11.3,56.6l56.6-11.3l163.6-163.6c4.2-4.2,4.2-10.9,0-15.1l-30.2-30.2
	c-4.2-4.2-10.9-4.2-15.1,0L278.7,431.2z M329.2,486.3h0.2H329.2z"/>
<path class="st0" d="M202.7,448H53.3C23.9,448,0,424.1,0,394.7V117.3C0,87.9,23.9,64,53.3,64H96c5.9,0,10.7,4.8,10.7,10.7
	S101.9,85.3,96,85.3H53.3c-17.6,0-32,14.4-32,32v277.3c0,17.6,14.4,32,32,32h149.3c5.9,0,10.7,4.8,10.7,10.7S208.6,448,202.7,448z"
	/>
<path class="st0" d="M352,256c-5.9,0-10.7-4.8-10.7-10.7v-128c0-17.6-14.4-32-32-32h-42.7c-5.9,0-10.7-4.8-10.7-10.7
	S260.8,64,266.7,64h42.7c29.4,0,53.3,23.9,53.3,53.3v128C362.7,251.2,357.9,256,352,256z"/>
<path class="st0" d="M245.3,128h-128c-17.6,0-32-14.4-32-32V53.3c0-5.9,4.8-10.7,10.7-10.7h33.1C134,18.3,155.6,0,181.3,0
	s47.3,18.3,52.3,42.7h33.1c5.9,0,10.7,4.8,10.7,10.7V96C277.3,113.6,263,128,245.3,128z M106.7,64v32c0,5.9,4.8,10.7,10.7,10.7h128
	c5.9,0,10.7-4.8,10.7-10.7V64h-32c-5.9,0-10.7-4.8-10.7-10.7c0-17.6-14.4-32-32-32s-32,14.4-32,32c0,5.9-4.8,10.7-10.7,10.7H106.7z"
	/>
<path class="st0" d="M288,192H74.7c-5.9,0-10.7-4.8-10.7-10.7s4.8-10.7,10.7-10.7H288c5.9,0,10.7,4.8,10.7,10.7S293.9,192,288,192z"
	/>
<path class="st0" d="M288,256H74.7c-5.9,0-10.7-4.8-10.7-10.7s4.8-10.7,10.7-10.7H288c5.9,0,10.7,4.8,10.7,10.7S293.9,256,288,256z"
	/>
<path class="st0" d="M288,320H74.7c-5.9,0-10.7-4.8-10.7-10.7s4.8-10.7,10.7-10.7H288c5.9,0,10.7,4.8,10.7,10.7S293.9,320,288,320z"
	/>
</svg>
