<svg width="47" height="47" viewBox="0 0 47 47" fill="none" xmlns="http://www.w3.org/2000/svg">
<path d="M2.33164 46.9078C1.10156 46.9078 0.0917969 45.898 0.0917969 44.668V34.5795C0.0917969 33.3402 1.10156 32.3396 2.33164 32.3396H4.61738C5.59961 32.3396 6.48086 33.0006 6.76543 33.9461L6.78379 34.0103H10.4465L13.0627 31.2564C14.3846 29.8703 16.2297 28.273 18.7908 28.273C18.901 28.273 19.0111 28.273 19.1213 28.2822C19.9934 28.3281 20.7002 28.4291 21.3703 28.5209C22.2975 28.6494 23.1695 28.7779 24.473 28.7779C25.1432 28.7779 25.8684 28.7412 26.6945 28.677C26.7129 28.677 26.7221 28.677 26.7404 28.677C26.7496 28.677 26.7588 28.677 26.768 28.677C28.6682 28.7779 30.1461 30.2742 30.1461 32.0826C30.1461 32.6609 29.9992 33.2301 29.7146 33.735L29.5953 33.9553L29.834 33.8635C30.6326 33.5605 31.3211 33.1107 31.9361 32.4865L38.0314 26.327C39.9684 24.3717 41.7768 23.3711 43.3832 23.3711C44.6041 23.3711 45.3752 23.9402 45.7332 24.2891C47.1377 25.6385 47.2937 28.0619 46.0728 29.3654L33.4049 42.9055C31.9545 44.4568 30.1186 45.2371 27.9246 45.2371H6.78379L6.76543 45.3014C6.49004 46.2469 5.59961 46.9078 4.61738 46.9078H2.33164ZM2.33164 33.4228C1.69824 33.4228 1.175 33.9461 1.175 34.5795V44.668C1.175 45.3014 1.68906 45.8246 2.33164 45.8246H4.61738C5.25078 45.8246 5.77402 45.3014 5.77402 44.668V34.5795C5.77402 33.9461 5.25996 33.4228 4.61738 33.4228H2.33164ZM6.85723 44.1539H27.9246C29.7973 44.1539 31.3762 43.4838 32.6062 42.1619L45.2834 28.6219C46.0912 27.759 45.9443 25.9965 44.9805 25.0693C44.5582 24.6562 44.0258 24.4543 43.4107 24.4543C42.1256 24.4543 40.4916 25.3906 38.8025 27.0889L32.7072 33.2484C31.5047 34.4693 30.0359 35.1486 28.2092 35.3414L27.4105 35.424C27.3187 35.4424 27.2178 35.4607 27.1076 35.4699C27.0984 35.4699 27.0984 35.4699 27.0893 35.4699C26.9607 35.4791 26.8506 35.4883 26.7312 35.4883H19.3324C19.0295 35.4883 18.7908 35.2404 18.7908 34.9467C18.7908 34.6529 19.0387 34.4051 19.3324 34.4051H26.7129L27.2453 34.35H27.2545C28.301 34.1113 29.0721 33.1566 29.0721 32.0826C29.0721 30.8434 28.0807 29.852 26.7588 29.7602H26.7496H26.7404C25.9143 29.8244 25.1799 29.8611 24.4822 29.8611C23.0961 29.8611 22.1414 29.7234 21.2234 29.5949C20.535 29.4939 19.8924 29.4021 19.0662 29.3654C18.9744 29.3562 18.8826 29.3562 18.7908 29.3562C17.1109 29.3562 15.5871 30.1732 13.8521 32L11.0707 34.9283C10.9697 35.0385 10.8229 35.0936 10.676 35.0936H6.85723V44.1539Z" fill="#44004E"/>
<path d="M24.9219 22.6645C24.6465 22.6645 24.3711 22.4992 24.3711 22.1137L24.3619 16.2387C24.3619 16.0918 24.417 15.9541 24.5271 15.8439C24.6281 15.743 24.7658 15.6787 24.9127 15.6787H28.5937C32.899 15.6787 36.4332 12.4475 36.8187 8.16973L36.8371 7.96777H30.7877C26.2254 7.96777 22.526 11.6764 22.526 16.2295L22.5352 22.1045C22.5352 22.2697 22.4893 22.3982 22.3883 22.4992C22.2873 22.6002 22.1404 22.6553 21.9844 22.6553C21.709 22.6553 21.4336 22.4809 21.4336 22.1045V16.7803H18.3217C13.1535 16.7803 8.94922 12.576 8.94922 7.41699C8.94922 7.27012 9.0043 7.13242 9.10527 7.03144C9.20625 6.92129 9.35312 6.86621 9.5 6.86621H15.375C17.4955 6.86621 19.5701 7.59141 21.2225 8.9041L21.2316 8.91328C21.5254 9.11523 21.4979 9.37227 21.4611 9.50078C21.3877 9.74863 21.149 9.93223 20.9195 9.93223C20.791 9.93223 20.6625 9.87715 20.5432 9.76699L20.534 9.75781C19.0652 8.58281 17.2752 7.95859 15.375 7.95859H10.0691L10.0875 8.16055C10.473 12.4383 14.0072 15.6695 18.3125 15.6695H21.4428L21.452 15.5043C21.6355 13.1543 22.682 10.9787 24.4078 9.37227C26.1428 7.75664 28.401 6.86621 30.7785 6.86621H37.3971C37.5439 6.86621 37.6816 6.92129 37.7826 7.03144C37.8836 7.1416 37.9478 7.28848 37.9478 7.45371C37.9295 9.95976 36.9473 12.3006 35.1848 14.0631C33.4223 15.8164 31.0814 16.7895 28.5846 16.7895H25.4543L25.4635 22.1137C25.4635 22.2789 25.4176 22.4074 25.3166 22.5084C25.2248 22.6094 25.0779 22.6645 24.9219 22.6645Z" fill="#FF00FF"/>
<path d="M16.1388 13.3562C16.0379 13.3562 15.9461 13.3287 15.8451 13.2645C14.7986 12.732 13.899 11.8508 13.1554 10.6482C13.0545 10.483 13.0361 10.2811 13.1279 10.1158C13.2197 9.93223 13.4033 9.82207 13.6144 9.80371C13.8256 9.81289 14 9.90469 14.1009 10.0699C14.7435 11.1072 15.4963 11.8508 16.3408 12.2822H16.35C16.7172 12.4475 16.6988 12.7504 16.6713 12.8789C16.6162 13.1176 16.4142 13.3562 16.1388 13.3562Z" fill="#FF00FF"/>
<path d="M30.759 13.3559C30.4836 13.3559 30.2816 13.1172 30.2357 12.8877C30.2082 12.7684 30.1898 12.4562 30.557 12.291H30.5662C31.4107 11.8596 32.1634 11.116 32.806 10.0787C32.8978 9.92266 33.0631 9.82168 33.2742 9.8125C33.4945 9.82168 33.6781 9.93184 33.7699 10.1154C33.8617 10.2898 33.8525 10.4918 33.7424 10.657C32.9988 11.8596 32.0992 12.7408 31.0619 13.2732C30.9517 13.3283 30.8508 13.3559 30.759 13.3559Z" fill="#FF00FF"/>
<path d="M14.0438 28.2187C13.7868 28.2187 13.5389 28.0168 13.4471 27.7414C13.4104 27.6221 13.3553 27.31 13.7042 27.0805C15.788 25.5658 19.1569 23.7666 23.4438 23.7666C26.7485 23.7666 29.9155 24.8039 32.8438 26.8418C33.1927 27.0713 33.1468 27.3834 33.11 27.5119C33.0366 27.7506 32.8163 27.9893 32.5225 27.9893C32.394 27.9893 32.2747 27.9434 32.1553 27.8607C29.429 25.9697 26.5007 25.0059 23.453 25.0059C20.2768 25.0059 17.2384 26.0432 14.4386 28.0811C14.3009 28.1729 14.1723 28.2187 14.0438 28.2187Z" fill="#FF00FF"/>
</svg>
