<?xml version="1.0" encoding="utf-8"?>
<!-- Generator: Adobe Illustrator 16.0.2, SVG Export Plug-In . SVG Version: 6.00 Build 0)  -->
<!DOCTYPE svg PUBLIC "-//W3C//DTD SVG 1.1//EN" "http://www.w3.org/Graphics/SVG/1.1/DTD/svg11.dtd">
<svg version="1.1" id="Ebene_1" xmlns="http://www.w3.org/2000/svg" xmlns:xlink="http://www.w3.org/1999/xlink" x="0px" y="0px" width="512px" height="512px" viewBox="0 0 512 512" enable-background="new 0 0 512 512" xml:space="preserve">
    <image display="none" overflow="visible" width="76" height="76" xlink:href="B007E161.jpg"  transform="matrix(5.9602 0 0 5.9602 29.1021 28.3633)">
</image>
    <path display="none" fill="none" stroke="#626262" stroke-width="32" stroke-linecap="round" stroke-linejoin="round" d="M470.08,287.23v156.153c0,24.642-23.96,44.616-53.519,44.616H95.439c-29.558,0-53.52-19.975-53.52-44.616V287.23"/>
    <path display="none" fill="#626262" stroke="#626262" stroke-width="32" stroke-linecap="round" stroke-linejoin="round" d="M256.27,127.231h74.231L256.27,38V127.231z"/>
    <g>
        <path fill="#008000" stroke="#008000" stroke-width="32" stroke-linecap="round" stroke-linejoin="round" d="M131.499,364.683H26.671l104.828,126.009V364.683z"/>
        <path fill="#008000" stroke="#008000" stroke-width="32" stroke-linecap="round" stroke-linejoin="round" d="M131.502,490.691L236.33,364.683H131.502V490.691z"/>
        <path fill="none" stroke="#008000" stroke-width="32" stroke-linecap="round" stroke-linejoin="round" d="M131.502,484.855V21.309" />
        <path fill="#FF0000" stroke="#FF0000" stroke-width="32" stroke-linecap="round" stroke-linejoin="round" d="M380.493,21.309l-104.83,126.009h104.833L380.493,21.309z"/>
        <path fill="#FF0000" stroke="#FF0000" stroke-width="32" stroke-linecap="round" stroke-linejoin="round" d="M380.496,147.318h104.833L380.499,21.309L380.496,147.318z"/>
        <path fill="none" stroke="#FF0000" stroke-width="32" stroke-linecap="round" stroke-linejoin="round" d="M380.496,27.144v463.547" />
    </g>
</svg>