<?xml version="1.0" encoding="utf-8"?>
<!-- Generator: Adobe Illustrator 23.1.0, SVG Export Plug-In . SVG Version: 6.00 Build 0)  -->
<svg version="1.1" id="Capa_1" xmlns="http://www.w3.org/2000/svg" xmlns:xlink="http://www.w3.org/1999/xlink" x="0px" y="0px"
	 viewBox="0 0 488 488" style="enable-background:new 0 0 488 488;" xml:space="preserve">
<style type="text/css">
	.st0{fill:#FF00FF;}
	.st1{fill:#44004E;}
</style>
<path class="st0" d="M451.4,313.8c-4.2,0-7.6,3.4-7.6,7.6v135.8H53.6V321.3c0-4.2-3.4-7.6-7.6-7.6s-7.6,3.4-7.6,7.6v143.2
	c0,4.2,3.4,7.6,7.6,7.6h405.4c4.2,0,7.6-3.4,7.6-7.6V321.3C459,317.2,455.6,313.8,451.4,313.8z"/>
<path class="st1" d="M243.5,394.6c3,3,7.8,3,10.6,0l0,0l97.7-97.7c2.8-3,2.8-7.8-0.2-10.6c-2.8-2.8-7.6-2.8-10.4,0l-84.8,84.8V21.6
	c0-4.2-3.4-7.6-7.6-7.6c-4.2,0-7.6,3.4-7.6,7.6v349.8l-84.8-84.8c-3-2.8-7.8-2.8-10.6,0.2c-2.8,2.8-2.8,7.6,0,10.4L243.5,394.6z"/>
</svg>
