<svg width="25" height="25" viewBox="0 0 25 25" fill="none" xmlns="http://www.w3.org/2000/svg">
<path d="M14.3187 12.9544L14.3184 12.9539L14.1932 12.7576L15.8643 11.9221V12.5001C15.8643 12.9644 15.4895 13.3391 15.0252 13.3391C14.7346 13.3391 14.4715 13.1961 14.3187 12.9544L14.3187 12.9544ZM13.339 12.5001C13.339 13.4289 14.0964 14.1863 15.0252 14.1863C15.954 14.1863 16.7114 13.4289 16.7114 12.5001V11.2374C16.7114 11.092 16.6336 10.9579 16.514 10.881C16.4425 10.832 16.3615 10.8139 16.2878 10.8139C16.2271 10.8139 16.16 10.8258 16.0962 10.8604L13.5734 12.1218C13.4311 12.193 13.339 12.3369 13.339 12.5001Z" fill="#FF00FF" stroke="#FF00FF" stroke-width="0.3"/>
<path d="M8.49177 10.8773L8.49175 10.8773L8.48885 10.8791C8.36867 10.955 8.28848 11.0854 8.28848 11.2374V12.5001C8.28848 13.4289 9.04587 14.1863 9.97467 14.1863C10.9035 14.1863 11.6609 13.4289 11.6609 12.5001C11.6609 12.3369 11.5688 12.193 11.4264 12.1218L8.90372 10.8604C8.83993 10.8258 8.77279 10.8139 8.71205 10.8139C8.62936 10.8139 8.55248 10.8409 8.49177 10.8773ZM9.97467 13.3391C9.51038 13.3391 9.13561 12.9644 9.13561 12.5001V11.9221L10.8067 12.7576L10.6821 12.9531C10.682 12.9532 10.6819 12.9534 10.6818 12.9535C10.5242 13.1967 10.2603 13.3391 9.97467 13.3391Z" fill="#FF00FF" stroke="#FF00FF" stroke-width="0.3"/>
<mask id="path-3-outside-1_738_14851" maskUnits="userSpaceOnUse" x="1.08337" y="1.08301" width="23" height="23" fill="black">
<rect fill="white" x="1.08337" y="1.08301" width="23" height="23"/>
<path d="M21.3805 22.9163C20.5346 22.9163 19.8443 22.2261 19.8443 21.3801C19.8443 20.7362 20.2568 20.1596 20.8713 19.9408L21.1069 19.8566V17.5502C21.1069 17.003 20.665 16.5611 20.1179 16.5611H16.5615V17.5502C16.5615 18.4046 15.8586 19.1285 15.0253 19.1285H9.97479C9.14145 19.1285 8.43859 18.4046 8.43859 17.5502V16.5611H4.8822C4.33506 16.5611 3.89314 17.003 3.89314 17.5502V19.8566L4.12883 19.9408C4.74331 20.1596 5.15576 20.7404 5.15576 21.3801C5.15576 22.2261 4.46553 22.9163 3.61957 22.9163C2.77361 22.9163 2.08337 22.2261 2.08337 21.3801C2.08337 20.7362 2.49583 20.1596 3.11031 19.9408L3.346 19.8566V17.5502C3.346 16.7042 4.03624 16.014 4.8822 16.014H7.73152L7.10442 15.3995C6.4731 14.7808 6.05644 13.9559 5.92597 13.0763L5.87967 12.769H2.63051V13.7623C2.63051 13.9138 2.50846 14.0359 2.35694 14.0359C2.20543 14.0359 2.08337 13.9138 2.08337 13.7623V11.237C2.08337 11.0855 2.20543 10.9635 2.35694 10.9635C2.50846 10.9635 2.63051 11.0855 2.63051 11.237V12.2261H5.89651L5.92176 11.8936C5.98489 11.0603 6.21216 10.2564 6.59937 9.49883L6.86452 8.97695H4.8822C4.03624 8.97695 3.346 8.29092 3.346 7.44496V5.14277L3.11031 5.0586C2.49583 4.83974 2.08337 4.26314 2.08337 3.6192C2.08337 2.77324 2.77361 2.08301 3.61957 2.08301C4.46553 2.08301 5.15576 2.77324 5.15576 3.6192C5.15576 4.26314 4.74331 4.83974 4.12883 5.0586L3.89314 5.14277V7.44917C3.89314 7.99631 4.33506 8.43823 4.8822 8.43823H7.25593L7.36536 8.30775C8.64061 6.75893 10.5093 5.87089 12.4916 5.87089H12.5C14.4445 5.8751 16.2921 6.76314 17.5716 8.30775L17.6768 8.43823H20.1179C20.665 8.43823 21.1069 7.99631 21.1069 7.44917V5.14277L20.8713 5.0586C20.2568 4.83974 19.8443 4.26314 19.8443 3.6192C19.8443 2.77324 20.5346 2.08301 21.3805 2.08301C22.2265 2.08301 22.9167 2.77324 22.9167 3.6192C22.9167 4.26314 22.5042 4.83974 21.8898 5.0586L21.6541 5.14277V7.44917C21.6541 8.29513 20.9638 8.98536 20.1179 8.98536H18.0935L18.3586 9.50725C18.7753 10.3237 19.0236 11.1276 19.0909 11.902L19.1204 12.2261H22.3654V11.237C22.3654 11.0855 22.4874 10.9635 22.6389 10.9635C22.7904 10.9635 22.9125 11.0855 22.9125 11.237V13.7623C22.9125 13.9138 22.7904 14.0359 22.6389 14.0359C22.4874 14.0359 22.3654 13.9138 22.3654 13.7623V12.7732H19.1162L19.0741 13.0805C19.032 13.3709 18.9226 13.6781 18.8216 13.9391C18.6196 14.4778 18.2871 14.966 17.8452 15.3995L17.2138 16.014H20.1179C20.9638 16.014 21.6541 16.7042 21.6541 17.5502V19.8566L21.8898 19.9408C22.5042 20.1596 22.9167 20.7362 22.9167 21.3801C22.9167 22.2261 22.2265 22.9163 21.3805 22.9163ZM21.3805 20.3911C20.8334 20.3911 20.3915 20.833 20.3915 21.3801C20.3915 21.9273 20.8334 22.3692 21.3805 22.3692C21.9276 22.3692 22.3696 21.9273 22.3696 21.3801C22.3696 20.833 21.9276 20.3911 21.3805 20.3911ZM3.61957 20.3911C3.07243 20.3911 2.63051 20.833 2.63051 21.3801C2.63051 21.9273 3.07243 22.3692 3.61957 22.3692C4.16671 22.3692 4.60863 21.9273 4.60863 21.3801C4.60863 20.833 4.16671 20.3911 3.61957 20.3911ZM15.0253 18.5813C15.5598 18.5813 16.0143 18.1099 16.0143 17.5502V16.0687C16.0143 15.9509 16.0859 15.8498 16.1953 15.812C17.1718 15.4668 17.942 14.7177 18.3123 13.7497C18.4638 13.3498 18.5396 12.9332 18.5396 12.5039C18.5396 9.15371 15.825 6.42644 12.4874 6.42644C9.22984 6.42644 6.51519 9.03587 6.43102 12.2471C6.33001 13.8212 7.30223 15.2901 8.80055 15.8204C8.90997 15.8583 8.98152 15.9593 8.98573 16.0771V17.5586C8.98573 18.1184 9.44028 18.5897 9.97479 18.5897H10.9638V16.2876C10.9638 16.136 11.0859 16.014 11.2374 16.014C11.3889 16.014 11.511 16.136 11.511 16.2876V18.5813H13.4891V16.2876C13.4891 16.136 13.6112 16.014 13.7627 16.014C13.9142 16.014 14.0362 16.136 14.0362 16.2876V18.5813H15.0253ZM21.3805 2.63015C20.8334 2.63015 20.3915 3.07207 20.3915 3.6192C20.3915 4.16634 20.8334 4.60826 21.3805 4.60826C21.9276 4.60826 22.3696 4.16634 22.3696 3.6192C22.3696 3.07207 21.9276 2.63015 21.3805 2.63015ZM3.61957 2.63015C3.07243 2.63015 2.63051 3.07207 2.63051 3.6192C2.63051 4.16634 3.07243 4.60826 3.61957 4.60826C4.16671 4.60826 4.60863 4.16634 4.60863 3.6192C4.60863 3.07207 4.16671 2.63015 3.61957 2.63015Z"/>
</mask>
<path d="M21.3805 22.9163C20.5346 22.9163 19.8443 22.2261 19.8443 21.3801C19.8443 20.7362 20.2568 20.1596 20.8713 19.9408L21.1069 19.8566V17.5502C21.1069 17.003 20.665 16.5611 20.1179 16.5611H16.5615V17.5502C16.5615 18.4046 15.8586 19.1285 15.0253 19.1285H9.97479C9.14145 19.1285 8.43859 18.4046 8.43859 17.5502V16.5611H4.8822C4.33506 16.5611 3.89314 17.003 3.89314 17.5502V19.8566L4.12883 19.9408C4.74331 20.1596 5.15576 20.7404 5.15576 21.3801C5.15576 22.2261 4.46553 22.9163 3.61957 22.9163C2.77361 22.9163 2.08337 22.2261 2.08337 21.3801C2.08337 20.7362 2.49583 20.1596 3.11031 19.9408L3.346 19.8566V17.5502C3.346 16.7042 4.03624 16.014 4.8822 16.014H7.73152L7.10442 15.3995C6.4731 14.7808 6.05644 13.9559 5.92597 13.0763L5.87967 12.769H2.63051V13.7623C2.63051 13.9138 2.50846 14.0359 2.35694 14.0359C2.20543 14.0359 2.08337 13.9138 2.08337 13.7623V11.237C2.08337 11.0855 2.20543 10.9635 2.35694 10.9635C2.50846 10.9635 2.63051 11.0855 2.63051 11.237V12.2261H5.89651L5.92176 11.8936C5.98489 11.0603 6.21216 10.2564 6.59937 9.49883L6.86452 8.97695H4.8822C4.03624 8.97695 3.346 8.29092 3.346 7.44496V5.14277L3.11031 5.0586C2.49583 4.83974 2.08337 4.26314 2.08337 3.6192C2.08337 2.77324 2.77361 2.08301 3.61957 2.08301C4.46553 2.08301 5.15576 2.77324 5.15576 3.6192C5.15576 4.26314 4.74331 4.83974 4.12883 5.0586L3.89314 5.14277V7.44917C3.89314 7.99631 4.33506 8.43823 4.8822 8.43823H7.25593L7.36536 8.30775C8.64061 6.75893 10.5093 5.87089 12.4916 5.87089H12.5C14.4445 5.8751 16.2921 6.76314 17.5716 8.30775L17.6768 8.43823H20.1179C20.665 8.43823 21.1069 7.99631 21.1069 7.44917V5.14277L20.8713 5.0586C20.2568 4.83974 19.8443 4.26314 19.8443 3.6192C19.8443 2.77324 20.5346 2.08301 21.3805 2.08301C22.2265 2.08301 22.9167 2.77324 22.9167 3.6192C22.9167 4.26314 22.5042 4.83974 21.8898 5.0586L21.6541 5.14277V7.44917C21.6541 8.29513 20.9638 8.98536 20.1179 8.98536H18.0935L18.3586 9.50725C18.7753 10.3237 19.0236 11.1276 19.0909 11.902L19.1204 12.2261H22.3654V11.237C22.3654 11.0855 22.4874 10.9635 22.6389 10.9635C22.7904 10.9635 22.9125 11.0855 22.9125 11.237V13.7623C22.9125 13.9138 22.7904 14.0359 22.6389 14.0359C22.4874 14.0359 22.3654 13.9138 22.3654 13.7623V12.7732H19.1162L19.0741 13.0805C19.032 13.3709 18.9226 13.6781 18.8216 13.9391C18.6196 14.4778 18.2871 14.966 17.8452 15.3995L17.2138 16.014H20.1179C20.9638 16.014 21.6541 16.7042 21.6541 17.5502V19.8566L21.8898 19.9408C22.5042 20.1596 22.9167 20.7362 22.9167 21.3801C22.9167 22.2261 22.2265 22.9163 21.3805 22.9163ZM21.3805 20.3911C20.8334 20.3911 20.3915 20.833 20.3915 21.3801C20.3915 21.9273 20.8334 22.3692 21.3805 22.3692C21.9276 22.3692 22.3696 21.9273 22.3696 21.3801C22.3696 20.833 21.9276 20.3911 21.3805 20.3911ZM3.61957 20.3911C3.07243 20.3911 2.63051 20.833 2.63051 21.3801C2.63051 21.9273 3.07243 22.3692 3.61957 22.3692C4.16671 22.3692 4.60863 21.9273 4.60863 21.3801C4.60863 20.833 4.16671 20.3911 3.61957 20.3911ZM15.0253 18.5813C15.5598 18.5813 16.0143 18.1099 16.0143 17.5502V16.0687C16.0143 15.9509 16.0859 15.8498 16.1953 15.812C17.1718 15.4668 17.942 14.7177 18.3123 13.7497C18.4638 13.3498 18.5396 12.9332 18.5396 12.5039C18.5396 9.15371 15.825 6.42644 12.4874 6.42644C9.22984 6.42644 6.51519 9.03587 6.43102 12.2471C6.33001 13.8212 7.30223 15.2901 8.80055 15.8204C8.90997 15.8583 8.98152 15.9593 8.98573 16.0771V17.5586C8.98573 18.1184 9.44028 18.5897 9.97479 18.5897H10.9638V16.2876C10.9638 16.136 11.0859 16.014 11.2374 16.014C11.3889 16.014 11.511 16.136 11.511 16.2876V18.5813H13.4891V16.2876C13.4891 16.136 13.6112 16.014 13.7627 16.014C13.9142 16.014 14.0362 16.136 14.0362 16.2876V18.5813H15.0253ZM21.3805 2.63015C20.8334 2.63015 20.3915 3.07207 20.3915 3.6192C20.3915 4.16634 20.8334 4.60826 21.3805 4.60826C21.9276 4.60826 22.3696 4.16634 22.3696 3.6192C22.3696 3.07207 21.9276 2.63015 21.3805 2.63015ZM3.61957 2.63015C3.07243 2.63015 2.63051 3.07207 2.63051 3.6192C2.63051 4.16634 3.07243 4.60826 3.61957 4.60826C4.16671 4.60826 4.60863 4.16634 4.60863 3.6192C4.60863 3.07207 4.16671 2.63015 3.61957 2.63015Z" fill="#44004E"/>
<path d="M21.3805 22.9163C20.5346 22.9163 19.8443 22.2261 19.8443 21.3801C19.8443 20.7362 20.2568 20.1596 20.8713 19.9408L21.1069 19.8566V17.5502C21.1069 17.003 20.665 16.5611 20.1179 16.5611H16.5615V17.5502C16.5615 18.4046 15.8586 19.1285 15.0253 19.1285H9.97479C9.14145 19.1285 8.43859 18.4046 8.43859 17.5502V16.5611H4.8822C4.33506 16.5611 3.89314 17.003 3.89314 17.5502V19.8566L4.12883 19.9408C4.74331 20.1596 5.15576 20.7404 5.15576 21.3801C5.15576 22.2261 4.46553 22.9163 3.61957 22.9163C2.77361 22.9163 2.08337 22.2261 2.08337 21.3801C2.08337 20.7362 2.49583 20.1596 3.11031 19.9408L3.346 19.8566V17.5502C3.346 16.7042 4.03624 16.014 4.8822 16.014H7.73152L7.10442 15.3995C6.4731 14.7808 6.05644 13.9559 5.92597 13.0763L5.87967 12.769H2.63051V13.7623C2.63051 13.9138 2.50846 14.0359 2.35694 14.0359C2.20543 14.0359 2.08337 13.9138 2.08337 13.7623V11.237C2.08337 11.0855 2.20543 10.9635 2.35694 10.9635C2.50846 10.9635 2.63051 11.0855 2.63051 11.237V12.2261H5.89651L5.92176 11.8936C5.98489 11.0603 6.21216 10.2564 6.59937 9.49883L6.86452 8.97695H4.8822C4.03624 8.97695 3.346 8.29092 3.346 7.44496V5.14277L3.11031 5.0586C2.49583 4.83974 2.08337 4.26314 2.08337 3.6192C2.08337 2.77324 2.77361 2.08301 3.61957 2.08301C4.46553 2.08301 5.15576 2.77324 5.15576 3.6192C5.15576 4.26314 4.74331 4.83974 4.12883 5.0586L3.89314 5.14277V7.44917C3.89314 7.99631 4.33506 8.43823 4.8822 8.43823H7.25593L7.36536 8.30775C8.64061 6.75893 10.5093 5.87089 12.4916 5.87089H12.5C14.4445 5.8751 16.2921 6.76314 17.5716 8.30775L17.6768 8.43823H20.1179C20.665 8.43823 21.1069 7.99631 21.1069 7.44917V5.14277L20.8713 5.0586C20.2568 4.83974 19.8443 4.26314 19.8443 3.6192C19.8443 2.77324 20.5346 2.08301 21.3805 2.08301C22.2265 2.08301 22.9167 2.77324 22.9167 3.6192C22.9167 4.26314 22.5042 4.83974 21.8898 5.0586L21.6541 5.14277V7.44917C21.6541 8.29513 20.9638 8.98536 20.1179 8.98536H18.0935L18.3586 9.50725C18.7753 10.3237 19.0236 11.1276 19.0909 11.902L19.1204 12.2261H22.3654V11.237C22.3654 11.0855 22.4874 10.9635 22.6389 10.9635C22.7904 10.9635 22.9125 11.0855 22.9125 11.237V13.7623C22.9125 13.9138 22.7904 14.0359 22.6389 14.0359C22.4874 14.0359 22.3654 13.9138 22.3654 13.7623V12.7732H19.1162L19.0741 13.0805C19.032 13.3709 18.9226 13.6781 18.8216 13.9391C18.6196 14.4778 18.2871 14.966 17.8452 15.3995L17.2138 16.014H20.1179C20.9638 16.014 21.6541 16.7042 21.6541 17.5502V19.8566L21.8898 19.9408C22.5042 20.1596 22.9167 20.7362 22.9167 21.3801C22.9167 22.2261 22.2265 22.9163 21.3805 22.9163ZM21.3805 20.3911C20.8334 20.3911 20.3915 20.833 20.3915 21.3801C20.3915 21.9273 20.8334 22.3692 21.3805 22.3692C21.9276 22.3692 22.3696 21.9273 22.3696 21.3801C22.3696 20.833 21.9276 20.3911 21.3805 20.3911ZM3.61957 20.3911C3.07243 20.3911 2.63051 20.833 2.63051 21.3801C2.63051 21.9273 3.07243 22.3692 3.61957 22.3692C4.16671 22.3692 4.60863 21.9273 4.60863 21.3801C4.60863 20.833 4.16671 20.3911 3.61957 20.3911ZM15.0253 18.5813C15.5598 18.5813 16.0143 18.1099 16.0143 17.5502V16.0687C16.0143 15.9509 16.0859 15.8498 16.1953 15.812C17.1718 15.4668 17.942 14.7177 18.3123 13.7497C18.4638 13.3498 18.5396 12.9332 18.5396 12.5039C18.5396 9.15371 15.825 6.42644 12.4874 6.42644C9.22984 6.42644 6.51519 9.03587 6.43102 12.2471C6.33001 13.8212 7.30223 15.2901 8.80055 15.8204C8.90997 15.8583 8.98152 15.9593 8.98573 16.0771V17.5586C8.98573 18.1184 9.44028 18.5897 9.97479 18.5897H10.9638V16.2876C10.9638 16.136 11.0859 16.014 11.2374 16.014C11.3889 16.014 11.511 16.136 11.511 16.2876V18.5813H13.4891V16.2876C13.4891 16.136 13.6112 16.014 13.7627 16.014C13.9142 16.014 14.0362 16.136 14.0362 16.2876V18.5813H15.0253ZM21.3805 2.63015C20.8334 2.63015 20.3915 3.07207 20.3915 3.6192C20.3915 4.16634 20.8334 4.60826 21.3805 4.60826C21.9276 4.60826 22.3696 4.16634 22.3696 3.6192C22.3696 3.07207 21.9276 2.63015 21.3805 2.63015ZM3.61957 2.63015C3.07243 2.63015 2.63051 3.07207 2.63051 3.6192C2.63051 4.16634 3.07243 4.60826 3.61957 4.60826C4.16671 4.60826 4.60863 4.16634 4.60863 3.6192C4.60863 3.07207 4.16671 2.63015 3.61957 2.63015Z" stroke="#44004E" mask="url(#path-3-outside-1_738_14851)"/>
</svg>
