<svg width="24" height="24" viewBox="0 0 24 24" fill="none" xmlns="http://www.w3.org/2000/svg">
<path d="M14.4242 13.4747C13.6121 13.4747 12.9495 12.8121 12.9495 12C12.9495 11.899 13.006 11.8101 13.0949 11.7656L15.5192 10.5535C15.5555 10.5333 15.5959 10.5252 15.6363 10.5252C15.6848 10.5252 15.7333 10.5374 15.7737 10.5656C15.8505 10.6141 15.899 10.699 15.899 10.7879V12C15.899 12.8121 15.2363 13.4747 14.4242 13.4747ZM13.6242 12.5131C13.7979 12.7879 14.0969 12.9495 14.4242 12.9495C14.9495 12.9495 15.3737 12.5252 15.3737 12V11.2121L13.4182 12.1899L13.6242 12.5131Z" fill="#FF00FF"/>
<path d="M9.5757 13.4747C8.76358 13.4747 8.10095 12.8121 8.10095 12V10.7879C8.10095 10.6949 8.14944 10.6141 8.2262 10.5656C8.26661 10.5414 8.31509 10.5252 8.36358 10.5252C8.40398 10.5252 8.44439 10.5333 8.48075 10.5535L10.905 11.7656C10.9939 11.8101 11.0504 11.899 11.0504 12C11.0504 12.8121 10.3878 13.4747 9.5757 13.4747ZM8.6262 12C8.6262 12.5252 9.05045 12.9495 9.5757 12.9495C9.89893 12.9495 10.1979 12.7879 10.3757 12.5131L10.5818 12.1899L8.6262 11.2121V12Z" fill="#FF00FF"/>
<path d="M20.5253 22C19.7131 22 19.0505 21.3374 19.0505 20.5253C19.0505 19.9071 19.4465 19.3535 20.0364 19.1434L20.2626 19.0626V16.8485C20.2626 16.3232 19.8384 15.899 19.3131 15.899H15.899V16.8485C15.899 17.6687 15.2242 18.3636 14.4242 18.3636H9.57576C8.77576 18.3636 8.10101 17.6687 8.10101 16.8485V15.899H4.68687C4.16162 15.899 3.73737 16.3232 3.73737 16.8485V19.0626L3.96364 19.1434C4.55354 19.3535 4.94949 19.9111 4.94949 20.5253C4.94949 21.3374 4.28687 22 3.47475 22C2.66263 22 2 21.3374 2 20.5253C2 19.9071 2.39596 19.3535 2.98586 19.1434L3.21212 19.0626V16.8485C3.21212 16.0364 3.87475 15.3737 4.68687 15.3737H7.42222L6.8202 14.7838C6.21414 14.1899 5.81414 13.398 5.68889 12.5535L5.64444 12.2586H2.52525V13.2121C2.52525 13.3576 2.40808 13.4747 2.26263 13.4747C2.11717 13.4747 2 13.3576 2 13.2121V10.7879C2 10.6424 2.11717 10.5253 2.26263 10.5253C2.40808 10.5253 2.52525 10.6424 2.52525 10.7879V11.7374H5.66061L5.68485 11.4182C5.74545 10.6182 5.96364 9.84646 6.33535 9.11919L6.5899 8.61818H4.68687C3.87475 8.61818 3.21212 7.9596 3.21212 7.14747V4.93737L2.98586 4.85657C2.39596 4.64646 2 4.09293 2 3.47475C2 2.66263 2.66263 2 3.47475 2C4.28687 2 4.94949 2.66263 4.94949 3.47475C4.94949 4.09293 4.55354 4.64646 3.96364 4.85657L3.73737 4.93737V7.15152C3.73737 7.67677 4.16162 8.10101 4.68687 8.10101H6.96566L7.07071 7.97576C8.29495 6.48889 10.0889 5.63636 11.9919 5.63636H12C13.8667 5.6404 15.6404 6.49293 16.8687 7.97576L16.9697 8.10101H19.3131C19.8384 8.10101 20.2626 7.67677 20.2626 7.15152V4.93737L20.0364 4.85657C19.4465 4.64646 19.0505 4.09293 19.0505 3.47475C19.0505 2.66263 19.7131 2 20.5253 2C21.3374 2 22 2.66263 22 3.47475C22 4.09293 21.604 4.64646 21.0141 4.85657L20.7879 4.93737V7.15152C20.7879 7.96364 20.1253 8.62626 19.3131 8.62626H17.3697L17.6242 9.12727C18.0242 9.91111 18.2626 10.6828 18.3273 11.4263L18.3556 11.7374H21.4707V10.7879C21.4707 10.6424 21.5879 10.5253 21.7333 10.5253C21.8788 10.5253 21.996 10.6424 21.996 10.7879V13.2121C21.996 13.3576 21.8788 13.4747 21.7333 13.4747C21.5879 13.4747 21.4707 13.3576 21.4707 13.2121V12.2626H18.3515L18.3111 12.5576C18.2707 12.8364 18.1657 13.1313 18.0687 13.3818C17.8747 13.899 17.5556 14.3677 17.1313 14.7838L16.5253 15.3737H19.3131C20.1253 15.3737 20.7879 16.0364 20.7879 16.8485V19.0626L21.0141 19.1434C21.604 19.3535 22 19.9071 22 20.5253C22 21.3374 21.3374 22 20.5253 22ZM20.5253 19.5758C20 19.5758 19.5758 20 19.5758 20.5253C19.5758 21.0505 20 21.4747 20.5253 21.4747C21.0505 21.4747 21.4747 21.0505 21.4747 20.5253C21.4747 20 21.0505 19.5758 20.5253 19.5758ZM3.47475 19.5758C2.94949 19.5758 2.52525 20 2.52525 20.5253C2.52525 21.0505 2.94949 21.4747 3.47475 21.4747C4 21.4747 4.42424 21.0505 4.42424 20.5253C4.42424 20 4 19.5758 3.47475 19.5758ZM14.4242 17.8384C14.9374 17.8384 15.3737 17.3859 15.3737 16.8485V15.4263C15.3737 15.3131 15.4424 15.2162 15.5475 15.1798C16.4848 14.8485 17.2242 14.1293 17.5798 13.2C17.7253 12.8162 17.798 12.4162 17.798 12.004C17.798 8.78788 15.1919 6.1697 11.9879 6.1697C8.86061 6.1697 6.25455 8.67475 6.17374 11.7576C6.07677 13.2687 7.0101 14.6788 8.44848 15.1879C8.55354 15.2242 8.62222 15.3212 8.62626 15.4343V16.8566C8.62626 17.3939 9.06263 17.8465 9.57576 17.8465H10.5253V15.6364C10.5253 15.4909 10.6424 15.3737 10.7879 15.3737C10.9333 15.3737 11.0505 15.4909 11.0505 15.6364V17.8384H12.9495V15.6364C12.9495 15.4909 13.0667 15.3737 13.2121 15.3737C13.3576 15.3737 13.4747 15.4909 13.4747 15.6364V17.8384H14.4242ZM20.5253 2.52525C20 2.52525 19.5758 2.94949 19.5758 3.47475C19.5758 4 20 4.42424 20.5253 4.42424C21.0505 4.42424 21.4747 4 21.4747 3.47475C21.4747 2.94949 21.0505 2.52525 20.5253 2.52525ZM3.47475 2.52525C2.94949 2.52525 2.52525 2.94949 2.52525 3.47475C2.52525 4 2.94949 4.42424 3.47475 4.42424C4 4.42424 4.42424 4 4.42424 3.47475C4.42424 2.94949 4 2.52525 3.47475 2.52525Z" fill="#FFFFFF"/>
</svg>
