<svg width="45" height="45" viewBox="0 0 45 45" fill="none" xmlns="http://www.w3.org/2000/svg">
<g clip-path="url(#clip0)">
<path d="M15.6862 21.5318C12.3006 21.5318 8.93219 21.074 6.45341 20.2708C3.60325 19.3466 2.0918 18.0511 2.0918 16.531C2.0918 15.0109 3.60325 13.7154 6.45341 12.7913C8.93219 11.988 12.2919 11.5303 15.6862 11.5303C19.0805 11.5303 22.4402 11.988 24.919 12.7913C27.7692 13.7154 29.2806 15.0109 29.2806 16.531C29.2806 18.0511 27.7692 19.3466 24.9104 20.2708C22.4402 21.074 19.0719 21.5318 15.6862 21.5318ZM15.6862 12.6703C12.3092 12.6703 9.13084 13.1108 6.73843 13.9054C4.51875 14.6568 3.2405 15.6328 3.2405 16.5828C3.2405 17.5329 4.51875 18.5089 6.73843 19.2603C9.13084 20.0549 12.3092 20.4953 15.6862 20.4953C19.0632 20.4953 22.2416 20.0549 24.634 19.2603C26.8623 18.5089 28.1319 17.5329 28.1319 16.5828C28.1319 15.6328 26.8537 14.6568 24.634 13.9054C22.2416 13.1108 19.0632 12.6703 15.6862 12.6703Z" fill="#44004E"/>
<path d="M15.687 29.0716C12.3014 29.0716 8.93301 28.6139 6.45423 27.8106C3.59543 26.8865 2.08398 25.591 2.08398 24.0709V16.5482C2.08398 16.2804 2.24808 16.0127 2.61947 16.0127C2.96494 16.0127 3.15495 16.2027 3.15495 16.5482V24.0709C3.15495 25.0209 4.43321 25.9969 6.65288 26.7483C9.04529 27.5429 12.2237 27.9834 15.6007 27.9834C18.9777 27.9834 22.156 27.5429 24.5485 26.7483C26.7768 25.9969 28.0464 25.0209 28.0464 24.0709V16.5482C28.0464 16.2804 28.2105 16.0127 28.5819 16.0127C28.8496 16.0127 29.1174 16.1768 29.1174 16.5482V24.0709C29.1346 24.7446 28.8669 25.3664 28.3228 25.9192C26.2672 28.0957 20.4891 29.0716 15.687 29.0716Z" fill="#44004E"/>
<path d="M15.6862 36.4732C12.3006 36.4732 8.93219 36.0155 6.45341 35.2122C3.60325 34.2881 2.0918 32.9926 2.0918 31.4638V28.2855C2.0918 28.0177 2.2559 27.75 2.62728 27.75C2.97276 27.75 3.16277 27.94 3.16277 28.2855V31.412C3.16277 32.3621 4.44102 33.338 6.66069 34.0895C9.0531 34.884 12.2315 35.3245 15.6085 35.3245C18.9855 35.3245 22.1639 34.884 24.5563 34.0895C26.7846 33.338 28.0542 32.3621 28.0542 31.412V28.2855C28.0542 28.0177 28.2183 27.75 28.5897 27.75C28.8574 27.75 29.1252 27.9141 29.1252 28.2855V31.412C29.1424 32.0771 28.8661 32.7076 28.3133 33.2776C26.5341 35.1863 21.4556 36.4732 15.6862 36.4732Z" fill="#44004E"/>
<path d="M15.687 44.0651C12.3014 44.0651 8.93301 43.6074 6.45423 42.8041C3.59543 41.88 2.08398 40.5845 2.08398 39.0644V35.9378C2.08398 35.6701 2.24808 35.4023 2.61947 35.4023C2.96494 35.4023 3.15495 35.5924 3.15495 35.9378V39.0644C3.15495 40.0144 4.43321 40.9904 6.65288 41.7418C9.04529 42.5364 12.2237 42.9769 15.6007 42.9769C18.9777 42.9769 22.156 42.5364 24.5485 41.7418C26.7768 40.9904 28.0464 40.0144 28.0464 39.0644V35.9378C28.0464 35.6701 28.2105 35.4023 28.5819 35.4023C28.8496 35.4023 29.1174 35.5664 29.1174 35.9378V39.0644C29.1346 39.7208 28.8669 40.334 28.34 40.8867C26.5436 42.7869 21.4478 44.0651 15.687 44.0651Z" fill="#44004E"/>
<path d="M29.3921 10.2515C26.0065 10.2515 22.6381 9.79373 20.1593 8.9905C17.3005 8.06636 15.7891 6.77083 15.7891 5.25074C15.7891 3.73065 17.3005 2.43513 20.1507 1.51098C22.6295 0.707754 25.9892 0.25 29.3835 0.25C32.7778 0.25 36.1375 0.707754 38.6163 1.51098C41.4664 2.43513 42.9779 3.73065 42.9779 5.25074C42.9779 6.77083 41.4664 8.06636 38.6076 8.9905C36.1461 9.79373 32.7778 10.2515 29.3921 10.2515ZM29.3921 1.39007C26.0151 1.39007 22.8367 1.83055 20.4443 2.62514C18.216 3.37654 16.9464 4.35251 16.9464 5.30256C16.9464 6.25262 18.2247 7.22858 20.4443 7.97999C22.8367 8.77458 26.0151 9.21506 29.3921 9.21506C32.7691 9.21506 35.9475 8.77458 38.3399 7.97999C40.5682 7.22858 41.8378 6.25262 41.8378 5.30256C41.8378 4.35251 40.5596 3.37654 38.3399 2.62514C35.9475 1.83055 32.7691 1.39007 29.3921 1.39007Z" fill="#FF00FF"/>
<path d="M15.8164 10.6321V5.25131C15.8164 4.98356 15.9805 4.71582 16.3519 4.71582C16.6974 4.71582 16.8874 4.90583 16.8874 5.25131V10.6321H15.8164Z" fill="#FF00FF"/>
<path d="M30.5586 17.7749V16.6694H30.7054C36.8203 16.4621 41.7951 14.7175 41.7951 12.7828V5.26009C41.7951 4.99235 41.9592 4.72461 42.3306 4.72461C42.5984 4.72461 42.8661 4.88871 42.8661 5.26009V12.7828C42.8834 13.4306 42.6329 14.0438 42.1147 14.6052C40.4823 16.3412 35.9998 17.5849 30.7054 17.7749H30.5586Z" fill="#FF00FF"/>
<path d="M30.6797 25.1768V24.0281H30.8438C33.8321 23.9072 36.6046 23.4322 38.6601 22.698C40.6812 21.9725 41.7867 21.0657 41.7867 20.1415V17.015C41.7867 16.7472 41.9508 16.4795 42.3222 16.4795C42.5899 16.4795 42.8577 16.6436 42.8577 17.015V20.1415C42.9181 21.938 40.8539 23.0867 39.1179 23.7345C36.9414 24.5463 33.9962 25.0559 30.8265 25.1768H30.6797Z" fill="#FF00FF"/>
<path d="M30.5059 32.7599V31.6717H30.67C33.7015 31.568 36.5257 31.1016 38.6331 30.3502C40.6455 29.6247 41.8029 28.6919 41.8029 27.7851V24.6585C41.8029 24.3908 41.967 24.123 42.3384 24.123C42.6061 24.123 42.8738 24.2871 42.8738 24.6585V27.7851C42.8911 28.4328 42.632 29.0374 42.1224 29.5643C40.4728 31.3348 35.973 32.5872 30.6527 32.7599H30.5059Z" fill="#FF00FF"/>
</g>
<defs>
<clipPath id="clip0">
<rect width="44.2207" height="44.2207" fill="white" transform="translate(0.21875)"/>
</clipPath>
</defs>
</svg>
