<svg width="52" height="45" viewBox="0 0 52 45" fill="none" xmlns="http://www.w3.org/2000/svg">
<g clip-path="url(#clip0)">
<path d="M26.0683 10.1912C24.7468 10.1912 23.4945 9.67303 22.5444 8.72297C21.603 7.78156 21.0762 6.52921 21.0762 5.19914C21.0762 3.8777 21.5944 2.62535 22.5444 1.6753C23.4599 0.742517 24.7468 0.207031 26.0683 0.207031C27.3897 0.207031 28.6421 0.725243 29.5921 1.6753C30.5422 2.62535 31.0604 3.86906 31.0604 5.19914C31.0604 6.52921 30.5422 7.77292 29.5921 8.72297C28.6421 9.67303 27.3984 10.1912 26.0683 10.1912ZM26.0683 1.07072C24.9541 1.07072 23.9177 1.50256 23.1404 2.27988C22.3631 3.05719 21.9312 4.10225 21.9312 5.20777C21.9312 6.32193 22.3631 7.35835 23.1404 8.13567C23.9177 8.91298 24.9628 9.34483 26.0683 9.34483C27.1824 9.34483 28.2189 8.91298 28.9962 8.13567C29.7735 7.35835 30.2053 6.31329 30.2053 5.20777C30.2053 4.09362 29.7735 3.05719 28.9962 2.27988C28.2189 1.50256 27.1824 1.07072 26.0683 1.07072Z" fill="#44004E"/>
<path d="M17.6816 16.3844V15.3653C17.6816 14.0611 18.1308 12.7656 18.934 11.7292C19.7372 10.6841 20.8859 9.93269 22.1642 9.61313C22.1901 9.60449 22.2246 9.60449 22.2505 9.60449C22.4146 9.60449 22.5701 9.6995 22.6392 9.84632C23.0019 10.4336 23.4856 10.9 24.0729 11.2282C24.6602 11.5651 25.3166 11.7378 26.0248 11.7378C26.6985 11.7378 27.3722 11.5564 27.9768 11.2282C28.5727 10.9 29.0823 10.4077 29.4364 9.81178C29.5141 9.68222 29.6437 9.60449 29.7905 9.60449C29.8337 9.60449 29.8769 9.61313 29.9114 9.62177C31.1724 9.94997 32.3125 10.7014 33.1243 11.7378C33.9448 12.7915 34.3767 14.0525 34.3767 15.3739V16.324H34.3335C34.2126 16.3153 34.083 16.3153 33.9621 16.3153C33.8326 16.3153 33.7116 16.3067 33.5821 16.2981H33.5389V15.3739C33.5389 14.2338 33.1675 13.1629 32.4679 12.256C31.8288 11.4355 30.9738 10.8396 29.9719 10.5114C29.5573 11.0987 29.0218 11.5823 28.3827 11.9537C27.6486 12.3596 26.854 12.5669 26.0162 12.5669C25.1784 12.5669 24.3838 12.3596 23.6497 11.9537C23.0106 11.591 22.4751 11.1073 22.0605 10.5114C21.0759 10.8309 20.2122 11.4355 19.5817 12.256C18.8822 13.1542 18.5108 14.2338 18.5108 15.3739V16.3931H17.6816V16.3844Z" fill="#44004E"/>
<path d="M8.94132 33.6492C7.61988 33.6492 6.36754 33.131 5.41748 32.181C4.47607 31.2396 3.94922 29.9872 3.94922 28.6571C3.94922 27.3271 4.46743 26.0834 5.41748 25.1333C6.3589 24.1919 7.61125 23.665 8.94132 23.665C10.2628 23.665 11.5151 24.1833 12.4652 25.1333C13.4066 26.0747 13.9334 27.3271 13.9334 28.6571C13.9334 29.9872 13.4152 31.2309 12.4652 32.181C11.5151 33.1224 10.2628 33.6492 8.94132 33.6492ZM8.94996 24.5201C7.83581 24.5201 6.79938 24.9519 6.02206 25.7292C5.24475 26.5066 4.8129 27.5516 4.8129 28.6571C4.8129 29.7627 5.24475 30.8077 6.02206 31.585C6.79938 32.3624 7.84444 32.7942 8.94996 32.7942C10.0641 32.7942 11.1005 32.3624 11.8779 31.585C12.6552 30.8077 13.087 29.7627 13.087 28.6571C13.087 27.5516 12.6552 26.5066 11.8779 25.7292C11.1005 24.9519 10.0641 24.5201 8.94996 24.5201Z" fill="#44004E"/>
<path d="M8.92328 44.2119C7.36865 44.2119 5.84856 43.8837 4.40621 43.2445C3.01567 42.6227 1.72878 41.6726 0.68372 40.498C0.614626 40.4116 0.580078 40.3253 0.580078 40.2216V38.8311C0.580078 37.5097 1.01192 36.2487 1.83242 35.195C2.63565 34.1499 3.78435 33.3985 5.06261 33.0789C5.09716 33.0703 5.1317 33.0703 5.16625 33.0703C5.33899 33.0703 5.48581 33.1653 5.54627 33.3121C5.90902 33.8908 6.39268 34.3572 6.97999 34.694C7.58457 35.0309 8.25825 35.2036 8.93192 35.2036C9.62287 35.2036 10.3052 35.0222 10.8839 34.694C11.4798 34.3658 11.9894 33.8735 12.3521 33.2776C12.4298 33.148 12.5594 33.0703 12.7062 33.0703C12.7494 33.0703 12.7926 33.079 12.8271 33.0876C14.0881 33.4072 15.2368 34.1586 16.0401 35.2036C16.8519 36.24 17.2924 37.5356 17.2924 38.8397V40.2303C17.2751 40.3425 17.2319 40.4376 17.1542 40.5239C16.1005 41.6985 14.8568 42.614 13.4576 43.2445C12.0326 43.8837 10.5125 44.2119 8.92328 44.2119ZM1.41785 40.0662C2.35927 41.094 3.51661 41.9317 4.75168 42.4845C6.04721 43.0718 7.4982 43.3741 8.92328 43.3741C10.3656 43.3741 11.7648 43.0718 13.0949 42.4845C14.3731 41.9058 15.4959 41.094 16.4287 40.0662V38.8397C16.4287 37.6997 16.0573 36.6287 15.3577 35.7218C14.7273 34.91 13.8636 34.3054 12.879 33.9772C12.4644 34.5645 11.9289 35.0482 11.2898 35.4195C10.5557 35.8255 9.76106 36.0328 8.92328 36.0328C8.08551 36.0328 7.29092 35.8255 6.55678 35.4195C5.91766 35.0568 5.38217 34.5645 4.9676 33.9772C3.97436 34.2881 3.11931 34.8927 2.48882 35.7218C1.78924 36.6201 1.41785 37.6997 1.41785 38.8397V40.0662Z" fill="#44004E"/>
<path d="M42.6835 33.5203C41.3621 33.5203 40.1097 33.0021 39.1597 32.0521C38.2183 31.1107 37.6914 29.8583 37.6914 28.5282C37.6914 27.1982 38.2096 25.9545 39.1597 25.0044C40.1097 24.0543 41.3534 23.5361 42.6835 23.5361C44.0136 23.5361 45.2573 24.0543 46.2073 25.0044C47.1488 25.9458 47.6756 27.1982 47.6756 28.5282C47.6756 29.8583 47.1574 31.102 46.2073 32.0521C45.2573 32.9935 44.0049 33.5203 42.6835 33.5203ZM42.6921 24.3912C41.578 24.3912 40.5416 24.823 39.7643 25.6003C38.9869 26.3777 38.5551 27.4227 38.5551 28.5282C38.5551 29.6338 38.9869 30.6788 39.7643 31.4561C40.5416 32.2334 41.5866 32.6653 42.6921 32.6653C43.7977 32.6653 44.8427 32.2334 45.62 31.4561C46.3974 30.6788 46.8292 29.6338 46.8292 28.5282C46.8292 27.4227 46.3974 26.3777 45.62 25.6003C44.8427 24.823 43.8063 24.3912 42.6921 24.3912Z" fill="#44004E"/>
<path d="M42.6674 44.083C41.1128 44.083 39.5927 43.7548 38.1503 43.1156C36.7598 42.4938 35.4729 41.5437 34.4279 40.3691C34.3588 40.2827 34.3242 40.1964 34.3242 40.0927V38.7022C34.3242 37.3808 34.7561 36.1198 35.5766 35.0661C36.3798 34.021 37.5285 33.2696 38.8067 32.95C38.8413 32.9414 38.8758 32.9414 38.9104 32.9414C39.0831 32.9414 39.23 33.0364 39.2904 33.1832C39.6532 33.7619 40.1368 34.2283 40.7241 34.5651C41.3287 34.902 42.0024 35.0747 42.6761 35.0747C43.367 35.0747 44.0493 34.8933 44.628 34.5651C45.2239 34.2369 45.7335 33.7446 46.0963 33.1487C46.174 33.0191 46.3035 32.9414 46.4504 32.9414C46.4936 32.9414 46.5367 32.95 46.5713 32.9587C47.8323 33.2782 48.981 34.0297 49.7842 35.0747C50.5961 36.1111 51.0365 37.4067 51.0365 38.7108V40.1014C51.0193 40.2136 50.9761 40.3086 50.8983 40.395C49.8447 41.5696 48.6009 42.4851 47.2018 43.1156C45.7767 43.7548 44.2566 44.083 42.6674 44.083ZM35.162 39.9373C36.1034 40.965 37.2607 41.8028 38.4958 42.3556C39.7913 42.9429 41.2423 43.2452 42.6674 43.2452C44.1098 43.2452 45.509 42.9429 46.839 42.3556C48.1173 41.7769 49.2401 40.965 50.1729 39.9373V38.7108C50.1729 37.5708 49.8015 36.4998 49.1019 35.5929C48.4714 34.7811 47.6077 34.1765 46.6231 33.8483C46.2085 34.4356 45.673 34.9192 45.0339 35.2906C44.2998 35.6966 43.4966 35.9039 42.6674 35.9039C41.8296 35.9039 41.0351 35.6966 40.3009 35.2906C39.6618 34.9279 39.1263 34.4356 38.7117 33.8483C37.7271 34.1592 36.8635 34.7638 36.233 35.5929C35.5334 36.4912 35.162 37.5708 35.162 38.7108V39.9373Z" fill="#44004E"/>
<path d="M16.0147 32.2504V32.2072C15.8852 32.1468 15.7988 32.0086 15.7988 31.8531V17.9219C15.7988 17.7059 15.9716 17.5332 16.1875 17.5332H32.6666C33.1675 17.5332 33.6339 17.7319 34.0053 18.086C34.3681 18.4487 34.5581 18.9151 34.5581 19.4247V22.8881C34.5581 23.104 34.3853 23.2767 34.1694 23.2767C33.9535 23.2767 33.7808 23.104 33.7808 22.8881V19.4247C33.7808 19.131 33.6685 18.8546 33.4612 18.6474C33.2453 18.4401 32.9689 18.3278 32.6839 18.3278H16.5848V31.4731H32.6752C32.9689 31.4731 33.2453 31.3608 33.4526 31.1535C33.6599 30.9376 33.7721 30.6612 33.7721 30.3762V26.9128C33.7721 26.6969 33.9449 26.5242 34.1608 26.5242C34.3767 26.5242 34.5494 26.6969 34.5494 26.9128V30.3589C34.5494 30.8599 34.3508 31.3435 33.9967 31.6977C33.6426 32.0518 33.1675 32.2504 32.658 32.2504H16.0147Z" fill="#44004E"/>
<path d="M30.662 27.3095C30.2993 27.3095 29.9538 27.1626 29.6774 26.9035C29.4183 26.6444 29.2715 26.2903 29.2715 25.9189V23.872C29.2715 23.5092 29.4183 23.1638 29.6774 22.8874C29.9538 22.6196 30.2906 22.4814 30.662 22.4814H35.775C36.1378 22.4814 36.4833 22.6283 36.7596 22.8874C37.0187 23.1378 37.1656 23.492 37.1656 23.872V25.9189C37.1656 26.2817 37.0187 26.6271 36.7596 26.9035C36.5092 27.1626 36.1551 27.3095 35.775 27.3095H30.662ZM30.662 23.276C30.5152 23.276 30.3597 23.3365 30.2474 23.4488C30.1438 23.5524 30.0747 23.7165 30.0747 23.8633V25.9103C30.0747 26.0571 30.1352 26.2126 30.2474 26.3248C30.3511 26.4285 30.5152 26.4976 30.662 26.4976H35.775C35.9219 26.4976 36.0773 26.4371 36.1896 26.3248C36.2933 26.2212 36.3623 26.0571 36.3623 25.9103V23.8633C36.3623 23.7165 36.3019 23.5611 36.1896 23.4488C36.0773 23.3365 35.9391 23.276 35.7837 23.276H30.662Z" fill="#44004E"/>
<path d="M32.0948 26.135C31.7925 26.135 31.4816 26.0054 31.2743 25.7895C31.0498 25.565 30.9375 25.2886 30.9375 24.9777C30.9375 24.6754 31.0671 24.3644 31.283 24.1572C31.4903 23.9326 31.7753 23.8203 32.0948 23.8203C32.3971 23.8203 32.7081 23.9499 32.9153 24.1658C33.1399 24.3903 33.2522 24.6667 33.2522 24.9777C33.2522 25.2799 33.1226 25.5909 32.9067 25.7982C32.6994 26.0141 32.3971 26.135 32.0948 26.135ZM32.0948 24.6149C31.9998 24.6149 31.9048 24.6581 31.8357 24.7272C31.7666 24.7963 31.7235 24.8999 31.7235 24.9863C31.7235 25.0813 31.7666 25.1763 31.8357 25.2454C31.9048 25.3145 32.0085 25.3577 32.0948 25.3577C32.1898 25.3577 32.2848 25.3145 32.3539 25.2454C32.423 25.1763 32.4662 25.0727 32.4662 24.9863C32.4662 24.8913 32.4317 24.8049 32.3626 24.7358L32.3539 24.7272C32.2848 24.6581 32.1898 24.6149 32.0948 24.6149Z" fill="#FF00FF"/>
<path d="M32.8041 21.1514C32.5882 21.1514 32.4154 20.9786 32.4154 20.7627C32.4154 20.4691 32.3032 20.1927 32.0959 19.9854C31.88 19.7781 31.6036 19.6658 31.3186 19.6658H26.3437C26.1278 19.6658 25.9551 19.4931 25.9551 19.2772C25.9551 19.0613 26.1278 18.8885 26.3437 18.8885H26.3956L26.4733 18.8799H31.3186C31.8281 18.8799 32.3032 19.0785 32.6573 19.4326C33.0114 19.7868 33.21 20.2618 33.21 20.7714C33.1928 20.9873 33.02 21.1514 32.8041 21.1514Z" fill="#FF00FF"/>
</g>
<defs>
<clipPath id="clip0">
<rect width="50.992" height="44.2207" fill="white" transform="translate(0.285156)"/>
</clipPath>
</defs>
</svg>
