<svg width="46" height="45" viewBox="0 0 46 45" fill="none" xmlns="http://www.w3.org/2000/svg">
<path d="M25.8847 43.4436C25.7552 43.4436 25.6256 43.3918 25.5306 43.2967L2.85024 20.6164C2.75524 20.5214 2.72069 20.3918 2.71205 20.3054L1.81382 7.98064C1.79655 7.83381 1.84837 7.68698 1.95201 7.58334L8.60239 0.932959C8.70603 0.837954 8.83559 0.786133 8.9565 0.786133C8.97378 0.786133 8.98241 0.786133 8.99969 0.786133L21.3504 1.68437H21.359C21.4713 1.68437 21.575 1.73619 21.67 1.82256L44.3503 24.4857C44.4454 24.5807 44.4972 24.7016 44.4972 24.8398C44.4972 24.9693 44.4454 25.0989 44.3503 25.1939L26.2302 43.2967C26.1352 43.3918 26.0143 43.4436 25.8847 43.4436ZM2.80706 8.12746L3.67938 20.055L25.8847 42.2603L43.2966 24.8484L21.0913 2.64306L9.16379 1.77937L2.80706 8.12746Z" fill="#44004E"/>
<path d="M9.89835 11.6246C9.15558 11.6246 8.46464 11.3396 7.94642 10.8213C6.86682 9.74174 6.86682 7.99709 7.94642 6.91749C8.46464 6.39927 9.15558 6.11426 9.89835 6.11426C10.6411 6.11426 11.3321 6.39927 11.8503 6.91749C12.9299 7.99709 12.9299 9.74174 11.8503 10.8213C11.3321 11.3396 10.6411 11.6246 9.89835 11.6246ZM9.89835 7.09886C9.43196 7.09886 8.98285 7.28887 8.64601 7.62571C8.30917 7.96255 8.11916 8.41166 8.11916 8.87805C8.11916 9.34444 8.30917 9.79356 8.64601 10.1304C8.98285 10.4672 9.43196 10.6572 9.89835 10.6572C10.3647 10.6572 10.8139 10.4672 11.1507 10.1304C11.8416 9.41354 11.8416 8.31666 11.1507 7.63434C10.8139 7.28023 10.3734 7.09886 9.89835 7.09886Z" fill="#FF00FF"/>
<path d="M25.8832 39.22C25.7536 39.22 25.6327 39.1682 25.529 39.0731L22.3248 35.8689C22.1261 35.6702 22.1261 35.3679 22.3248 35.1693C22.4198 35.0743 22.5407 35.0225 22.6789 35.0225C22.8171 35.0225 22.9293 35.0743 23.033 35.1693L25.8832 38.0195L27.6623 36.2403C27.7573 36.1453 27.8783 36.0934 28.0165 36.0934C28.146 36.0934 28.2669 36.1453 28.3706 36.2403C28.4656 36.3353 28.5174 36.4562 28.5174 36.5944C28.5174 36.7326 28.4656 36.8448 28.3706 36.9485L26.2373 39.0818C26.1336 39.1682 26.0127 39.22 25.8832 39.22Z" fill="#44004E"/>
</svg>
