<svg width="45" height="45" viewBox="0 0 45 45" fill="none" xmlns="http://www.w3.org/2000/svg">
<path d="M9.82523 39.091C9.64386 39.091 9.47112 38.9528 9.4193 38.7714L1.49066 15.0719C1.36111 14.5796 1.59431 14.1218 2.04342 13.9663L32.6697 3.44666C32.7561 3.42075 32.8511 3.41211 32.9375 3.41211C33.3261 3.41211 33.6543 3.63667 33.7839 3.99942L37.4114 14.5191H42.7144C42.9562 14.5191 43.1894 14.6228 43.3362 14.8041C43.4658 14.9682 43.5176 15.1669 43.4744 15.3828V38.2532C43.4744 38.7196 43.0944 39.0996 42.628 39.0996H9.82523V39.091ZM42.6626 38.1927V15.4173H10.3003V38.1927H42.6626ZM9.42794 35.9212V15.3742C9.42794 14.9078 9.80796 14.5277 10.2743 14.5277H36.4699L32.9461 4.31898L2.40617 14.7955L9.42794 35.9212ZM12.8481 35.4117C12.6236 35.4117 12.4077 35.1957 12.4077 34.9712C12.4077 34.7034 12.589 34.5307 12.8481 34.5307H25.1729C25.4407 34.5307 25.6134 34.7121 25.6134 34.9712C25.6134 35.2303 25.432 35.4117 25.1729 35.4117H12.8481ZM27.9972 31.9742C27.7294 31.9742 27.5567 31.7928 27.5567 31.5337C27.5567 31.2746 27.7381 31.0932 27.9972 31.0932H40.322C40.5897 31.0932 40.7625 31.2746 40.7625 31.5337C40.7625 31.7928 40.5811 31.9742 40.322 31.9742H27.9972ZM12.8481 28.5799C12.6236 28.5799 12.4077 28.364 12.4077 28.1394C12.4077 27.8717 12.589 27.699 12.8481 27.699H25.1729C25.4407 27.699 25.6134 27.8803 25.6134 28.1394C25.6134 28.3985 25.432 28.5799 25.1729 28.5799H12.8481ZM28.2477 28.3035C28.0231 28.3035 27.7985 28.2085 27.6344 28.0444C27.479 27.8803 27.3926 27.673 27.4012 27.4571V18.2848C27.4012 17.8184 27.7813 17.4384 28.2477 17.4384H39.7606C40.227 17.4384 40.607 17.8184 40.607 18.2848V27.4571C40.607 27.9235 40.227 28.3035 39.7606 28.3035H28.2477ZM39.7174 27.4053V18.3193H28.2908V27.4053H39.7174ZM12.8481 21.7568C12.6236 21.7568 12.4077 21.5409 12.4077 21.3163C12.4077 21.0486 12.589 20.8758 12.8481 20.8758H25.1729C25.4407 20.8758 25.6134 21.0572 25.6134 21.3163C25.6134 21.5841 25.432 21.7568 25.1729 21.7568H12.8481Z" fill="#44004E"/>
<path d="M27.8331 35.4112C27.6171 35.4112 27.3926 35.1867 27.3926 34.9708C27.3926 34.703 27.574 34.5303 27.8331 34.5303H40.1579C40.4256 34.5303 40.5983 34.7116 40.5983 34.9708C40.5983 35.2299 40.417 35.4112 40.1579 35.4112H27.8331Z" fill="#FF00FF"/>
<path d="M13.0108 31.9737C12.743 31.9737 12.5703 31.7924 12.5703 31.5333C12.5703 31.2741 12.7517 31.0928 13.0108 31.0928H25.3356C25.5601 31.0928 25.7761 31.3087 25.7761 31.5333C25.7761 31.801 25.5947 31.9737 25.3356 31.9737H13.0108Z" fill="#FF00FF"/>
<path d="M13.0108 25.1505C12.743 25.1505 12.5703 24.9691 12.5703 24.71C12.5703 24.4509 12.7517 24.2695 13.0108 24.2695H25.3356C25.3356 24.2695 25.3442 24.2695 25.3529 24.2695C25.5688 24.2695 25.7847 24.4941 25.7847 24.7186C25.7847 24.9864 25.6033 25.1591 25.3442 25.1591H13.0108V25.1505Z" fill="#FF00FF"/>
<path d="M13.0108 18.3185C12.743 18.3185 12.5703 18.1371 12.5703 17.878C12.5703 17.6102 12.7517 17.4375 13.0108 17.4375H25.3356C25.6033 17.4375 25.7761 17.6189 25.7761 17.878C25.7761 18.1457 25.5947 18.3185 25.3356 18.3185H13.0108Z" fill="#FF00FF"/>
</svg>
