<svg width="51" height="51" viewBox="0 0 51 51" fill="none" xmlns="http://www.w3.org/2000/svg">
<path d="M16.3898 26.0818C16.0618 26.0818 15.7972 25.8173 15.7972 25.4893V20.0084H0.592528C0.264522 20.0084 0 19.7439 0 19.4159V3.62924C0 1.62945 1.62945 0 3.62924 0H19.4159C19.7439 0 20.0084 0.264522 20.0084 0.592528V6.36968H25.4893C25.8173 6.36968 26.0818 6.6342 26.0818 6.96221V13.0356C26.0818 13.3636 25.8173 13.6282 25.4893 13.6282C25.1507 13.6282 24.8968 13.3742 24.8968 13.0356V7.56532H20.019V19.4159C20.019 19.7439 19.7545 20.0084 19.4265 20.0084H16.9717V25.4893C16.9823 25.6374 16.9294 25.7856 16.8236 25.902C16.6966 26.0183 16.5485 26.0818 16.3898 26.0818ZM18.8234 18.8339V1.19564H3.62924C2.27489 1.19564 1.17448 2.29605 1.17448 3.6504V18.8339H18.8234Z" fill="#44004E"/>
<path d="M6.97339 13.6384C6.64538 13.6384 6.38086 13.3738 6.38086 13.0458V6.97241C6.38086 6.6444 6.64538 6.37988 6.97339 6.37988H13.0468C13.3748 6.37988 13.6393 6.6444 13.6393 6.97241V13.0458C13.6393 13.3738 13.3748 13.6384 13.0468 13.6384H6.97339ZM12.4437 12.4427V7.56494H7.56592V12.4427H12.4437Z" fill="#FF00FF"/>
<path d="M6.97339 44.6091C6.64538 44.6091 6.38086 44.3445 6.38086 44.0165V37.9431C6.38086 37.6151 6.64538 37.3506 6.97339 37.3506H13.0468C13.3748 37.3506 13.6393 37.6151 13.6393 37.9431V44.0165C13.6393 44.3445 13.3748 44.6091 13.0468 44.6091H6.97339ZM12.4437 43.4134V38.5356H7.56592V43.4134H12.4437Z" fill="#FF00FF"/>
<path d="M31.5632 20.0084C31.2352 20.0084 30.9707 19.7439 30.9707 19.4159V0.592528C30.9707 0.264522 31.2352 0 31.5632 0H47.3499C49.3497 0 50.9791 1.62945 50.9791 3.62924V19.4159C50.9791 19.7439 50.7146 20.0084 50.3866 20.0084H31.5632ZM49.8046 18.8234V3.62924C49.8046 2.27489 48.7042 1.17448 47.3499 1.17448H32.1663V18.8234H49.8046Z" fill="#44004E"/>
<path d="M37.9421 13.6384C37.6141 13.6384 37.3496 13.3738 37.3496 13.0458V6.97241C37.3496 6.6444 37.6141 6.37988 37.9421 6.37988H44.0156C44.3436 6.37988 44.6081 6.6444 44.6081 6.97241V13.0458C44.6081 13.3738 44.3436 13.6384 44.0156 13.6384H37.9421ZM43.4124 12.4427V7.56494H38.5347V12.4427H43.4124Z" fill="#FF00FF"/>
<path d="M50.3855 38.5352C50.0575 38.5352 49.793 38.2707 49.793 37.9427V31.573C49.793 31.245 50.0575 30.9805 50.3855 30.9805C50.7241 30.9805 50.978 31.2344 50.978 31.573V37.9427C50.978 38.2707 50.7135 38.5352 50.3855 38.5352Z" fill="#44004E"/>
<path d="M37.9421 50.9783C37.6141 50.9783 37.3496 50.7137 37.3496 50.3857C37.3496 50.0471 37.6036 49.7932 37.9421 49.7932H47.3591C48.7135 49.7932 49.8139 48.6928 49.8139 47.3384V43.9949C49.8139 43.6669 50.0784 43.4023 50.4064 43.4023C50.745 43.4023 50.9989 43.6563 50.9989 43.9949V47.3384C50.9989 49.3382 49.3695 50.9677 47.3697 50.9677H38.0374V50.9888H37.9421V50.9783Z" fill="#44004E"/>
<path d="M31.5632 50.9786C31.2352 50.9786 30.9707 50.714 30.9707 50.386V44.0164C30.9707 43.6884 31.2352 43.4238 31.5632 43.4238C31.9018 43.4238 32.1558 43.6778 32.1558 44.0164V50.386C32.1663 50.714 31.8912 50.9786 31.5632 50.9786Z" fill="#44004E"/>
<path d="M31.5632 38.5355C31.2352 38.5355 30.9707 38.271 30.9707 37.943V31.5733C30.9707 31.2453 31.2352 30.9808 31.5632 30.9808H43.4138V26.103H37.9329C37.6049 26.103 37.3404 25.8385 37.3404 25.5105C37.3404 25.1719 37.5943 24.918 37.9329 24.918H44.0169C44.3449 24.918 44.6094 25.1825 44.6094 25.5105V31.5839C44.6094 31.9119 44.3449 32.1764 44.0169 32.1764H32.1663V37.9536C32.1663 38.2604 31.8912 38.5355 31.5632 38.5355Z" fill="#44004E"/>
<path d="M37.9421 44.6091C37.6141 44.6091 37.3496 44.3445 37.3496 44.0165V37.9431C37.3496 37.6151 37.6141 37.3506 37.9421 37.3506H44.0156C44.3436 37.3506 44.6081 37.6151 44.6081 37.9431V44.0165C44.6081 44.3445 44.3436 44.6091 44.0156 44.6091H37.9421ZM43.4124 43.4134V38.5356H38.5347V43.4134H43.4124Z" fill="#FF00FF"/>
<path d="M25.489 26.0817C25.161 26.0817 24.8965 25.8172 24.8965 25.4892V19.4158C24.8965 19.0878 25.161 18.8232 25.489 18.8232C25.8276 18.8232 26.0815 19.0772 26.0815 19.4158V24.8967H31.5624C31.8904 24.8967 32.155 25.1612 32.155 25.4892C32.155 25.8278 31.901 26.0817 31.5624 26.0817H25.489Z" fill="#44004E"/>
<path d="M25.489 47.9524C25.161 47.9524 24.8965 47.6879 24.8965 47.3599V44.0164C24.8965 43.6884 25.161 43.4238 25.489 43.4238C25.8276 43.4238 26.0815 43.6778 26.0815 44.0164V47.3599C26.0815 47.6773 25.817 47.9524 25.489 47.9524Z" fill="#44004E"/>
<path d="M9.99878 50.978C10.326 50.978 10.5913 50.7127 10.5913 50.3855C10.5913 50.0583 10.326 49.793 9.99878 49.793C9.67153 49.793 9.40625 50.0583 9.40625 50.3855C9.40625 50.7127 9.67153 50.978 9.99878 50.978Z" fill="#44004E"/>
<path d="M14.4632 50.9995V50.9677C14.1881 50.9148 13.9765 50.6715 13.9765 50.3858C13.9765 50.0472 14.2304 49.7933 14.569 49.7933H18.8331V32.1444H1.19482V47.3385C1.19482 48.6928 2.29523 49.7933 3.64958 49.7933H5.46949C5.7975 49.7933 6.06202 50.0578 6.06202 50.3858C6.06202 50.7244 5.80808 50.9783 5.46949 50.9783H3.639C1.63922 50.9783 0.00976562 49.3489 0.00976562 47.3491V31.5624C0.00976562 31.2344 0.274287 30.9699 0.602294 30.9699H3.06764V25.489C3.06764 25.161 3.33216 24.8965 3.66016 24.8965H10.0298C10.3579 24.8965 10.6224 25.161 10.6224 25.489C10.6224 25.8276 10.3684 26.0815 10.0298 26.0815H4.25269V30.9593H19.4468C19.7748 30.9593 20.0393 31.2238 20.0393 31.5518V34.0066H25.4885C25.8165 34.0066 26.081 34.2711 26.081 34.5991V37.9427C26.081 38.2707 25.8165 38.5352 25.4885 38.5352C25.1499 38.5352 24.896 38.2813 24.896 37.9427V35.1917H20.0182V50.3858C20.0182 50.7138 19.7537 50.9783 19.4257 50.9783H14.4632V50.9995Z" fill="#44004E"/>
</svg>
