<?xml version="1.0" encoding="utf-8"?>
<!-- Generator: Adobe Illustrator 23.1.0, SVG Export Plug-In . SVG Version: 6.00 Build 0)  -->
<svg version="1.1" id="Capa_1" xmlns="http://www.w3.org/2000/svg" xmlns:xlink="http://www.w3.org/1999/xlink" x="0px" y="0px"
	 viewBox="0 0 512 512" style="enable-background:new 0 0 512 512;" xml:space="preserve">
<style type="text/css">
	.st0{fill:#FF00FF;}
	.st1{fill:#44004E;}
</style>
<g>
	<path class="st0" d="M139,183.3c-3.1,0-5.7-2.5-5.7-5.7s2.5-5.7,5.7-5.7h79.8c3.1,0,5.7,2.5,5.7,5.7s-2.5,5.7-5.7,5.7H139z"/>
</g>
<g>
	<path class="st0" d="M139,232.4c-3.1,0-5.7-2.5-5.7-5.7s2.5-5.7,5.7-5.7h79.8c3.1,0,5.7,2.5,5.7,5.7s-2.5,5.7-5.7,5.7H139z"/>
</g>
<g>
	<path class="st0" d="M139,281.5c-3.1,0-5.7-2.5-5.7-5.7s2.5-5.7,5.7-5.7h79.8c3.1,0,5.7,2.5,5.7,5.7s-2.5,5.7-5.7,5.7H139z"/>
</g>
<g>
	<path class="st0" d="M139,330.7c-3.1,0-5.7-2.5-5.7-5.7s2.5-5.7,5.7-5.7h79.8c3.1,0,5.7,2.5,5.7,5.7s-2.5,5.7-5.7,5.7H139z"/>
</g>
<g>
	<path class="st0" d="M297.2,134.1c-3.1,0-5.7-2.5-5.7-5.7s2.5-5.7,5.7-5.7H377c3.1,0,5.7,2.5,5.7,5.7s-2.5,5.7-5.7,5.7H297.2z"/>
</g>
<g>
	<path class="st0" d="M297.2,183.3c-3.1,0-5.7-2.5-5.7-5.7s2.5-5.7,5.7-5.7H377c3.1,0,5.7,2.5,5.7,5.7s-2.5,5.7-5.7,5.7H297.2z"/>
</g>
<g>
	<path class="st0" d="M297.2,232.4c-3.1,0-5.7-2.5-5.7-5.7s2.5-5.7,5.7-5.7H377c3.1,0,5.7,2.5,5.7,5.7s-2.5,5.7-5.7,5.7H297.2z"/>
</g>
<g>
	<path class="st0" d="M297.2,281.5c-3.1,0-5.7-2.5-5.7-5.7s2.5-5.7,5.7-5.7H377c3.1,0,5.7,2.5,5.7,5.7s-2.5,5.7-5.7,5.7H297.2z"/>
</g>
<g>
	<path class="st0" d="M297.2,330.7c-3.1,0-5.7-2.5-5.7-5.7s2.5-5.7,5.7-5.7H377c3.1,0,5.7,2.5,5.7,5.7s-2.5,5.7-5.7,5.7H297.2z"/>
</g>
<g>
	<g>
		<path class="st1" d="M397,411.3c-3.1,0-5.7-2.5-5.7-5.7s2.5-5.7,5.7-5.7h44.2V136.4h-19.4v227.7c0,3.1-2.5,5.7-5.7,5.7h-112
			c-17.9,0-33.8,10.6-40.8,27.1l-0.1,0.1l-0.1,0.2l-1.2,2.7h72.3c3.1,0,5.7,2.5,5.7,5.7s-2.5,5.7-5.7,5.7H69.2
			c-3.1,0-5.7-2.5-5.7-5.7V130.8c0-3.1,2.5-5.7,5.7-5.7h25V89.3c0-3.1,2.5-5.7,5.7-5.7h112c17.4,0,34.1,8.3,44.5,22.2l1.6,2.1
			l1.6-2.1c10.4-13.9,27-22.2,44.5-22.2h112c3.1,0,5.7,2.5,5.7,5.7v35.8h25c3.1,0,5.7,2.5,5.7,5.7v274.8c0,3.1-2.5,5.7-5.7,5.7H397z
			 M74.8,399.9h179.2l-1.2-2.7l-0.1-0.2l-0.1-0.1c-6.9-16.4-22.9-27.1-40.8-27.1h-112c-3.1,0-5.7-2.5-5.7-5.7V136.4H74.8V399.9z
			 M304.1,95c-17.2,0-33,10.1-40.2,25.8l-0.2,0.4v254.4l3.3-3c10.2-9.1,23.3-14.1,37.1-14.1h106.4V95H304.1z M105.6,358.5h106.4
			c13.7,0,26.9,5,37.1,14.1l3.3,3V121.2l-0.2-0.4c-7.2-15.7-23-25.8-40.2-25.8H105.6V358.5z"/>
	</g>
</g>
<g>
	<path class="st1" d="M351.2,410.7c-0.7,0-4.1-2.7-4.1-6c0-3.1,3.4-6,4.1-6h28.3c0.7,0,4.2,2.7,4.2,6s-3.6,6-4.2,6H351.2z"/>
</g>
<g>
	<path class="st0" d="M137.3,134.1c-3.1,0-5.7-2.5-5.7-5.7c0-3.1,2.5-5.7,5.7-5.7h79.8c3.1,0,5.7,2.5,5.7,5.7c0,3.1-2.5,5.7-5.7,5.7
		H137.3z"/>
</g>
</svg>
