<?xml version="1.0" encoding="utf-8"?>
<!-- Generator: Adobe Illustrator 24.1.3, SVG Export Plug-In . SVG Version: 6.00 Build 0)  -->
<svg version="1.1" id="Capa_1" xmlns="http://www.w3.org/2000/svg" xmlns:xlink="http://www.w3.org/1999/xlink" x="0px" y="0px"
	 viewBox="0 0 512 512" style="enable-background:new 0 0 512 512;" xml:space="preserve">
<style type="text/css">
	.st0{fill:#44004E;}
</style>
<g>
	<path class="st0" d="M206.1,412c45.8,0,90.2-15.3,126.3-43.4l136.2,136.2c10.2,9.8,26.4,9.5,36.2-0.6c9.6-9.9,9.6-25.7,0-35.6
		L368.6,332.3c69.8-89.8,53.5-219.2-36.3-289s-219.2-53.5-289,36.3s-53.5,219.2,36.3,289C115.8,396.7,160.3,412,206.1,412L206.1,412
		z M96.6,96.6c60.4-60.4,158.4-60.4,218.9,0s60.4,158.4,0,218.9s-158.4,60.4-218.9,0c0,0,0,0,0,0c-60.4-60-60.8-157.6-0.8-218.1
		C96.1,97.1,96.4,96.8,96.6,96.6L96.6,96.6z"/>
</g>
</svg>
