<svg width="24" height="24" viewBox="0 0 24 24" fill="none" xmlns="http://www.w3.org/2000/svg">
<path d="M4.60638 17.9258C4.28242 17.5426 3.97425 17.3055 3.65818 17.1949C3.45669 17.1238 3.25915 17.1119 3.03395 17.1515C2.65072 17.2226 2.40972 17.4517 2.40182 17.4636C2.3149 17.5505 2.23193 17.5465 2.17662 17.5268C2.09365 17.4991 2.02649 17.428 2.00673 17.345C1.98698 17.27 2.01069 17.2028 2.07785 17.1436C2.0818 17.1396 2.42157 16.8117 2.95494 16.7129C3.22359 16.6655 3.512 16.6892 3.78856 16.784C3.82412 16.7959 3.85177 16.8117 3.88338 16.8196C4.26266 16.9697 4.62219 17.2463 4.95406 17.6374C5.27803 18.0206 5.58619 18.2577 5.90226 18.3683C6.10375 18.4394 6.30129 18.4513 6.52649 18.4118C6.90972 18.3446 7.15467 18.1194 7.16258 18.1076V18.1036V18.0997C7.25344 18.0048 7.33641 18.0088 7.39568 18.0285C7.47864 18.0562 7.54976 18.1392 7.56556 18.2221C7.58532 18.2972 7.55371 18.3683 7.48654 18.4276L7.47864 18.4355C7.47864 18.4394 7.13492 18.7713 6.60551 18.8661C6.33685 18.9135 6.05239 18.8898 5.77188 18.795C5.35704 18.6528 4.96591 18.3604 4.60638 17.9258Z" fill="#FF00FF"/>
<path d="M14.843 18.5817C14.7798 18.6054 14.7007 18.5975 14.6415 18.5619C14.6059 18.5422 14.5427 18.4869 14.5348 18.3881L14.3096 15.7371C14.3056 15.7015 14.3136 15.6581 14.3294 15.6225L18.1498 7.14007C18.2288 6.96228 18.379 6.824 18.5647 6.75288C18.6516 6.72128 18.7345 6.70152 18.8294 6.70152H18.9163L19.3667 5.70196C19.4773 5.46096 19.6748 5.27132 19.9237 5.1765L19.9356 5.17255C20.1845 5.08168 20.4532 5.08958 20.6902 5.20021C21.1959 5.42935 21.4211 6.02198 21.192 6.52769L20.7416 7.52725L20.8008 7.59441C20.9154 7.73269 20.9826 7.90258 20.9826 8.07641V8.16333L21.2196 8.27001C21.8834 8.57027 22.1836 9.35649 21.8834 10.0202L20.8482 12.3236C20.8206 12.3907 20.7811 12.4381 20.7218 12.4579C20.6349 12.4895 20.5243 12.4618 20.4532 12.3828C20.4097 12.3354 20.3702 12.2524 20.4294 12.1379L21.4646 9.83454C21.6621 9.39204 21.4725 8.89029 21.03 8.68484L20.8245 8.59397L17.1028 16.871C17.087 16.9065 17.0594 16.9421 17.0317 16.9618L14.8983 18.554C14.8864 18.5659 14.8627 18.5738 14.843 18.5817Z" fill="#44004E"/>
<path d="M19.5721 6.84773L19.9712 5.95879C20.0107 5.87582 20.0779 5.80866 20.1608 5.77705C20.2438 5.74545 20.3386 5.7494 20.4216 5.78891C20.5994 5.86792 20.6705 6.05756 20.5915 6.2393L20.1924 7.12824L19.5721 6.84773Z" fill="#F4F4F4"/>
<path d="M16.4905 12.4499L18.8175 7.44029C18.8215 7.42843 18.8254 7.42448 18.8294 7.42053C18.8333 7.42053 18.8452 7.42053 18.8531 7.42843L20.3662 8.08822C20.3781 8.09217 20.3781 8.09613 20.3781 8.09613C20.3781 8.09613 20.3742 8.10008 20.3742 8.11193L18.0511 13.1255L16.4905 12.4499Z" fill="#F4F4F4"/>
<path d="M14.9102 15.737L16.1863 12.8727L17.9246 13.6628L16.6485 16.5312L14.9102 15.737Z" fill="#F4F4F4"/>
<path d="M14.9102 16.2269L16.1231 16.8591L15.084 17.6927L14.9102 16.2269Z" fill="#F4F4F4"/>
<path d="M9.62794 18.7516C9.56473 18.7516 9.50942 18.7319 9.4541 18.6884C9.24866 18.5225 9.35533 18.2578 9.64374 17.6177C9.86894 17.116 10.0744 16.6182 10.0625 16.3969L10.0586 16.314L9.97561 16.2903C9.94796 16.2823 9.91635 16.2784 9.88475 16.2784C9.58843 16.2784 9.11433 16.6024 8.55331 17.195C7.95674 17.8192 7.45498 18.5343 7.45103 18.5422C7.40757 18.6015 7.34041 18.637 7.26534 18.637C7.21793 18.637 7.17447 18.6212 7.13891 18.5975C7.03619 18.5264 7.01249 18.3881 7.0836 18.2854C7.10336 18.2538 7.60116 17.5466 8.22539 16.8908C8.50195 16.5984 9.24076 15.828 9.89265 15.828C10.0467 15.828 10.1811 15.8715 10.3035 15.9584C10.7105 16.2389 10.4497 16.9184 10.0941 17.7126L9.9282 18.0879L10.268 17.8627C10.8962 17.4439 11.3703 17.2503 11.7574 17.2503C12.117 17.2503 12.4054 17.4202 12.7175 17.6296C13.1126 17.8903 13.5195 18.1629 14.3887 18.1629C14.5112 18.1629 14.6139 18.2617 14.6139 18.3881C14.6139 18.5146 14.5151 18.6133 14.3887 18.6133C13.3852 18.6133 12.8558 18.2617 12.4686 18.0049C12.1802 17.8153 12.0063 17.7047 11.7614 17.7047C11.7337 17.7047 11.71 17.7047 11.6824 17.7086C11.3149 17.7402 10.8092 18.0089 10.0862 18.5422C9.97561 18.6133 9.79388 18.7516 9.62794 18.7516Z" fill="#FF00FF"/>
</svg>
