<svg width="24" height="24" viewBox="0 0 24 24" fill="none" xmlns="http://www.w3.org/2000/svg">
<path d="M12.0043 22C11.9153 22 11.8347 21.9746 11.7627 21.9237L11.021 21.4236C10.9617 21.3855 10.8939 21.3643 10.8261 21.3643C10.7837 21.3643 10.7455 21.3727 10.7031 21.3855L9.72413 21.7457C9.6987 21.7542 9.67751 21.7584 9.65208 21.7584C9.59274 21.7584 9.53341 21.733 9.49527 21.6906L8.79597 20.915C8.72816 20.843 8.63491 20.8006 8.53744 20.8006C8.52472 20.8006 8.51201 20.8006 8.49929 20.8048L7.46094 20.9193C7.45246 20.9193 7.44398 20.9193 7.43975 20.9193C7.36346 20.9193 7.29141 20.8769 7.25327 20.8091L6.76164 19.8894C6.70654 19.7919 6.60906 19.7241 6.49887 19.7071L5.46475 19.5715C5.37999 19.5588 5.30794 19.4995 5.28675 19.4147L5.02822 18.406C4.99855 18.2958 4.92226 18.2068 4.81631 18.1687L3.71014 17.7364L3.69743 16.5497C3.69743 16.4353 3.64233 16.3335 3.54909 16.2657L2.69722 15.6639C2.62517 15.6131 2.59126 15.5283 2.61245 15.4435L2.85403 14.4264C2.87946 14.3162 2.84979 14.2017 2.77774 14.117L2.19287 13.4431C2.0742 13.3075 2.05301 13.1168 2.13354 12.9599L2.5404 12.1674C2.59126 12.0657 2.59126 11.947 2.5404 11.8453L2.06573 10.9171C2.02758 10.8409 2.03606 10.7476 2.09539 10.6798L2.76503 9.8915C2.83708 9.80674 2.86674 9.69231 2.84131 9.58211L2.57007 8.42509L3.54062 7.74274C3.63386 7.67917 3.68895 7.57321 3.68895 7.45878L3.69743 6.56453C3.69743 6.38652 3.80762 6.22971 3.97291 6.1619L4.80359 5.83556C4.90955 5.79318 4.98584 5.70417 5.0155 5.59822L5.27403 4.58953C5.29522 4.50477 5.36727 4.44543 5.45204 4.43272L6.48615 4.2971C6.59635 4.28438 6.69806 4.21233 6.74892 4.11485L7.24055 3.19517C7.2787 3.12736 7.35074 3.08498 7.42703 3.08498C7.43551 3.08498 7.44398 3.08498 7.45246 3.08498L8.49082 3.19941C8.50353 3.19941 8.51625 3.19941 8.52896 3.19941C8.62644 3.19941 8.72392 3.15702 8.78749 3.08498L9.48679 2.30939C9.52493 2.26701 9.58427 2.24158 9.6436 2.24158C9.66903 2.24158 9.69446 2.24581 9.71565 2.25429L10.6947 2.61454C10.7328 2.62725 10.7752 2.63573 10.8176 2.63573C10.8896 2.63573 10.9574 2.61454 11.0125 2.57639L11.7542 2.07629C11.8263 2.02967 11.911 2 11.9958 2C12.0806 2 12.1653 2.02543 12.2374 2.07629L12.9791 2.57639C13.0384 2.61454 13.1062 2.63573 13.174 2.63573C13.2164 2.63573 13.2545 2.62725 13.2969 2.61454L14.2759 2.25429C14.3014 2.24581 14.3226 2.24158 14.348 2.24158C14.4073 2.24158 14.4667 2.26701 14.5048 2.30939L15.2041 3.08498C15.2719 3.15702 15.3652 3.19941 15.4626 3.19941C15.4753 3.19941 15.4881 3.19941 15.5008 3.19941L16.5391 3.08498C16.5476 3.08498 16.5561 3.08498 16.5603 3.08498C16.6366 3.08498 16.7087 3.12736 16.7468 3.19517L17.2384 4.11485C17.2935 4.21233 17.391 4.28014 17.5012 4.2971L18.5353 4.43272C18.6201 4.44543 18.6921 4.50477 18.7133 4.58953L18.9719 5.59822C19.0015 5.70841 19.0778 5.79741 19.1838 5.83556L20.2899 6.26785L20.3026 7.45455C20.3026 7.56474 20.3577 7.67069 20.451 7.7385L21.3029 8.34033C21.3749 8.39118 21.4088 8.47595 21.3876 8.56071L21.146 9.57788C21.1206 9.68807 21.1503 9.8025 21.2223 9.88726L21.8072 10.5611C21.9259 10.6968 21.9471 10.8875 21.8665 11.0443L21.4597 11.8368C21.4088 11.9385 21.4088 12.0572 21.4597 12.1589L21.9343 13.0871C21.9725 13.1634 21.964 13.2566 21.9047 13.3244L21.2435 14.117C21.1715 14.2017 21.1418 14.3162 21.1672 14.4264L21.3707 15.2952C21.413 15.469 21.3452 15.647 21.1969 15.7529L20.4679 16.2657C20.3747 16.3293 20.3196 16.4353 20.3196 16.5497L20.3111 17.4439C20.3111 17.622 20.2009 17.7788 20.0356 17.8466L19.205 18.1729C19.099 18.2153 19.0227 18.3043 18.993 18.4103L18.7345 19.4189C18.7133 19.5037 18.6413 19.563 18.5565 19.5758L17.5224 19.7114C17.4122 19.7241 17.3105 19.7961 17.2596 19.8936L16.768 20.8133C16.7299 20.8811 16.6578 20.9235 16.5815 20.9235C16.573 20.9235 16.5646 20.9235 16.5561 20.9235L15.5177 20.8091C15.505 20.8091 15.4923 20.8048 15.4796 20.8048C15.3821 20.8048 15.2846 20.8472 15.2211 20.9193L14.5218 21.6949C14.4836 21.7372 14.4243 21.7627 14.3649 21.7627C14.3395 21.7627 14.3141 21.7584 14.2929 21.7499L13.3139 21.3897C13.2757 21.377 13.2333 21.3685 13.191 21.3685C13.1189 21.3685 13.0511 21.3897 12.996 21.4278L12.2543 21.928C12.1738 21.9746 12.0933 22 12.0043 22ZM11.8093 21.449C11.8687 21.4872 11.9365 21.5084 12.0043 21.5084C12.0721 21.5084 12.1441 21.4872 12.1992 21.449L12.9875 20.915C13.0214 20.8896 13.0638 20.8769 13.1062 20.8769C13.1316 20.8769 13.1571 20.8811 13.1783 20.8896L14.0725 21.2202C14.1107 21.2329 14.153 21.2414 14.1954 21.2414C14.2929 21.2414 14.3904 21.199 14.4539 21.1269L15.0939 20.4234C15.1321 20.381 15.1914 20.3556 15.2507 20.3556C15.2592 20.3556 15.2677 20.3556 15.2719 20.3556L16.217 20.4615C16.2297 20.4615 16.2425 20.4615 16.2552 20.4615C16.3866 20.4615 16.501 20.3895 16.5646 20.2751L17.0138 19.4359C17.0477 19.3766 17.107 19.3342 17.1706 19.3257L18.1157 19.1986C18.2598 19.1816 18.3743 19.0757 18.4082 18.94L18.6709 17.9144L19.6584 17.5287C19.7941 17.4779 19.8788 17.3507 19.8831 17.2066L19.8958 16.1471L20.7604 15.5368C20.879 15.452 20.9341 15.3079 20.9002 15.168L20.7095 14.3543C20.6756 14.2187 20.7137 14.0746 20.8027 13.9686L21.3495 13.3371C21.4427 13.227 21.4639 13.0744 21.3961 12.9472L20.9638 12.0996C20.9341 12.0403 20.9341 11.9682 20.9638 11.9046L21.3961 11.057C21.4597 10.9299 21.4427 10.7773 21.3495 10.6671L20.7265 9.9466C20.6841 9.89574 20.6629 9.82369 20.6798 9.76012L20.896 8.83619C20.9299 8.69633 20.8748 8.55224 20.7561 8.46747L19.8915 7.85717L19.8788 6.79763C19.8788 6.65353 19.7898 6.52638 19.6542 6.47552L18.6667 6.08985L18.4039 5.06421C18.37 4.92435 18.2514 4.82263 18.1115 4.80568L17.1664 4.67853C17.0986 4.67006 17.0392 4.62768 17.0053 4.56834L16.5561 3.72918C16.4967 3.61475 16.3781 3.5427 16.2467 3.5427C16.234 3.5427 16.2213 3.5427 16.2086 3.5427L15.2634 3.64865C15.255 3.64865 15.2465 3.64865 15.2422 3.64865C15.1829 3.64865 15.1236 3.62323 15.0854 3.58084L14.4455 2.8773C14.3777 2.80526 14.2844 2.76287 14.1869 2.76287C14.1446 2.76287 14.1064 2.77135 14.064 2.78406L13.0681 3.15279L12.1865 2.55944C12.1272 2.5213 12.0594 2.50011 11.9916 2.50011C11.9237 2.50011 11.8517 2.5213 11.7966 2.55944L11.0083 3.09345C10.9744 3.11888 10.932 3.1316 10.8896 3.1316C10.8642 3.1316 10.8388 3.12736 10.8176 3.11888L9.92332 2.7883C9.88518 2.77559 9.8428 2.76711 9.80042 2.76711C9.70294 2.76711 9.60546 2.80949 9.54189 2.88154L8.90192 3.58508C8.86378 3.62746 8.80444 3.65289 8.74511 3.65289C8.73663 3.65289 8.72816 3.65289 8.72392 3.65289L7.7788 3.54694C7.76609 3.54694 7.75337 3.5427 7.74066 3.5427C7.60927 3.5427 7.4906 3.61475 7.43127 3.72918L6.98202 4.56834C6.94812 4.62768 6.88878 4.67006 6.82521 4.67853L5.88009 4.80568C5.736 4.82263 5.62156 4.92859 5.58766 5.06421L5.32489 6.08985L4.33739 6.47552C4.20177 6.52638 4.11701 6.65353 4.11277 6.79763L4.10006 7.85717L3.23547 8.46747C3.1168 8.55224 3.0617 8.69633 3.09561 8.83619L3.28632 9.64993C3.32023 9.78555 3.28209 9.92965 3.19308 10.0356L2.64636 10.6671C2.55312 10.7773 2.53193 10.9299 2.59974 11.057L3.03203 11.9046C3.0617 11.964 3.0617 12.036 3.03203 12.0996L2.59974 12.9472C2.53617 13.0744 2.55312 13.227 2.64636 13.3371L3.26937 14.0576C3.31175 14.1085 3.33294 14.1805 3.31599 14.2441L3.09984 15.168C3.06594 15.3079 3.12103 15.452 3.2397 15.5368L4.10429 16.1471L4.11701 17.2066C4.11701 17.3507 4.20601 17.4779 4.34163 17.5287L5.32913 17.9144L5.5919 18.94C5.6258 19.0799 5.74447 19.1816 5.88433 19.1986L6.82945 19.3257C6.89726 19.3342 6.95659 19.3766 6.9905 19.4359L7.43975 20.2751C7.49908 20.3895 7.61775 20.4615 7.74913 20.4615C7.76185 20.4615 7.77456 20.4615 7.78728 20.4573L8.73239 20.3513C8.74087 20.3513 8.74935 20.3513 8.75358 20.3513C8.81292 20.3513 8.87225 20.3768 8.9104 20.4192L9.55036 21.1227C9.61817 21.1947 9.71141 21.2371 9.80889 21.2371C9.85127 21.2371 9.88942 21.2286 9.9318 21.2159L10.9278 20.8515L11.8093 21.449Z" fill="#44004E"/>
<path d="M12.0255 19.5885C11.9916 19.5885 11.9534 19.5885 11.9195 19.5885C9.93605 19.5631 8.06277 18.7663 6.65145 17.355C5.24014 15.9437 4.4476 14.0704 4.41793 12.0869C4.38826 10.0356 5.16809 8.10302 6.60907 6.64084C8.05429 5.17867 9.97843 4.37341 12.0255 4.37341C12.0594 4.37341 12.0975 4.37341 12.1314 4.37341C14.1149 4.39884 15.9882 5.19562 17.3995 6.60694C18.8108 8.01825 19.6034 9.89153 19.633 11.875C19.6627 13.9263 18.8829 15.8589 17.4419 17.3211C15.9967 18.7832 14.0725 19.5885 12.0255 19.5885ZM12.0255 4.76333C11.9916 4.76333 11.9577 4.76333 11.9238 4.76333C8.05429 4.81842 4.86294 8.00978 4.80784 11.8792C4.78241 13.8246 5.51986 15.6597 6.88879 17.0456C8.25773 18.4315 10.0801 19.1986 12.0255 19.1986C12.0594 19.1986 12.0933 19.1986 12.1272 19.1986C15.9967 19.1435 19.188 15.9521 19.2431 12.0827C19.2685 10.1373 18.5311 8.30221 17.1622 6.91632C15.7932 5.5262 13.9708 4.76333 12.0255 4.76333Z" fill="#FF00FF"/>
<path d="M11.1693 15.7952C11.1354 15.791 11.0549 15.7698 11.0167 15.7232L10.9998 15.7062L7.30407 12.3835C7.2405 12.3157 7.20235 12.2479 7.19811 12.1885L7.19388 12.1716L7.18964 12.1546C7.1854 12.1207 7.19811 12.0826 7.22778 12.0444C7.30831 11.9851 7.38883 11.93 7.46088 11.93C7.51174 11.93 7.53717 11.9512 7.55412 11.9724L7.57107 11.9936L11.0803 15.1637L16.2678 8.86579C16.3484 8.80222 16.4246 8.76831 16.4882 8.76831C16.5391 8.76831 16.5518 8.77679 16.5815 8.81069L16.5899 8.81917L16.5984 8.82765C16.6662 8.89546 16.6917 8.9887 16.7001 9.05227C16.7044 9.09041 16.6874 9.13703 16.6493 9.17941L16.6408 9.18789L11.2498 15.7571C11.2117 15.7783 11.182 15.791 11.1693 15.7952Z" fill="#44004E"/>
</svg>
