<?xml version="1.0" encoding="utf-8"?>
<!-- Generator: Adobe Illustrator 23.1.0, SVG Export Plug-In . SVG Version: 6.00 Build 0)  -->
<svg version="1.1" id="Layer_1" xmlns="http://www.w3.org/2000/svg" xmlns:xlink="http://www.w3.org/1999/xlink" x="0px" y="0px"
	 viewBox="0 0 512 512" style="enable-background:new 0 0 512 512;" xml:space="preserve">
<style type="text/css">
	.st0{fill:#44004E;}
	.st1{fill:#FF00FF;}
</style>
<g>
	<g>
		<path class="st0" d="M256,491.9c-2.1,0-4-0.6-5.7-1.8l-17.5-11.8c-1.4-0.9-3-1.4-4.6-1.4c-1,0-1.9,0.2-2.9,0.5l-23.1,8.5
			c-0.6,0.2-1.1,0.3-1.7,0.3c-1.4,0-2.8-0.6-3.7-1.6l-16.5-18.3c-1.6-1.7-3.8-2.7-6.1-2.7c-0.3,0-0.6,0-0.9,0.1l-24.5,2.7
			c-0.2,0-0.4,0-0.5,0c-1.8,0-3.5-1-4.4-2.6l-11.6-21.7c-1.3-2.3-3.6-3.9-6.2-4.3l-24.4-3.2c-2-0.3-3.7-1.7-4.2-3.7l-6.1-23.8
			c-0.7-2.6-2.5-4.7-5-5.6l-26.1-10.2l-0.3-28c0-2.7-1.3-5.1-3.5-6.7l-20.1-14.2c-1.7-1.2-2.5-3.2-2-5.2l5.7-24
			c0.6-2.6-0.1-5.3-1.8-7.3L24.5,290c-2.8-3.2-3.3-7.7-1.4-11.4l9.6-18.7c1.2-2.4,1.2-5.2,0-7.6l-11.2-21.9c-0.9-1.8-0.7-4,0.7-5.6
			L38,206.2c1.7-2,2.4-4.7,1.8-7.3l-6.4-27.3l22.9-16.1c2.2-1.5,3.5-4,3.5-6.7l0.2-21.1c0-4.2,2.6-7.9,6.5-9.5l19.6-7.7
			c2.5-1,4.3-3.1,5-5.6l6.1-23.8c0.5-2,2.2-3.4,4.2-3.7l24.4-3.2c2.6-0.3,5-2,6.2-4.3l11.6-21.7c0.9-1.6,2.6-2.6,4.4-2.6
			c0.2,0,0.4,0,0.6,0l24.5,2.7c0.3,0,0.6,0,0.9,0c2.3,0,4.6-1,6.1-2.7l16.5-18.3c0.9-1,2.3-1.6,3.7-1.6c0.6,0,1.2,0.1,1.7,0.3
			l23.1,8.5C226,34.8,227,35,228,35c1.7,0,3.3-0.5,4.6-1.4l17.5-11.8c1.7-1.1,3.7-1.8,5.7-1.8c2,0,4,0.6,5.7,1.8L279,33.6
			c1.4,0.9,3,1.4,4.6,1.4c1,0,1.9-0.2,2.9-0.5l23.1-8.5c0.6-0.2,1.1-0.3,1.7-0.3c1.4,0,2.8,0.6,3.7,1.6l16.5,18.3
			c1.6,1.7,3.8,2.7,6.1,2.7c0.3,0,0.6,0,0.9,0l24.5-2.7c0.2,0,0.4,0,0.5,0c1.8,0,3.5,1,4.4,2.6l11.6,21.7c1.3,2.3,3.6,3.9,6.2,4.3
			l24.4,3.2c2,0.3,3.7,1.7,4.2,3.7l6.1,23.8c0.7,2.6,2.5,4.7,5,5.6l26.1,10.2l0.3,28c0,2.6,1.3,5.1,3.5,6.7l20.1,14.2
			c1.7,1.2,2.5,3.2,2,5.2l-5.7,24c-0.6,2.6,0.1,5.3,1.8,7.3l13.8,15.9c2.8,3.2,3.3,7.7,1.4,11.4l-9.6,18.7c-1.2,2.4-1.2,5.2,0,7.6
			l11.2,21.9c0.9,1.8,0.7,4-0.7,5.6L474,305.9c-1.7,2-2.4,4.7-1.8,7.3l4.8,20.5c1,4.1-0.6,8.3-4.1,10.8l-17.2,12.1
			c-2.2,1.5-3.5,4-3.5,6.7l-0.2,21.1c0,4.2-2.6,7.9-6.5,9.5l-19.6,7.7c-2.5,1-4.3,3.1-5,5.6l-6.1,23.8c-0.5,2-2.2,3.4-4.2,3.7
			l-24.4,3.2c-2.6,0.3-5,2-6.2,4.3l-11.6,21.7c-0.9,1.6-2.6,2.6-4.4,2.6l0,0c-0.2,0-0.4,0-0.6,0l-24.5-2.7c-0.3,0-0.6-0.1-0.9-0.1
			c-2.3,0-4.6,1-6.1,2.7l-16.5,18.3c-0.9,1-2.3,1.6-3.7,1.6c-0.6,0-1.2-0.1-1.7-0.3l-23.1-8.5c-0.9-0.3-1.9-0.5-2.9-0.5
			c-1.7,0-3.3,0.5-4.6,1.4l-17.5,11.8C260,491.3,258.1,491.9,256,491.9z M251.4,478.9c1.4,0.9,3,1.4,4.6,1.4s3.3-0.5,4.6-1.4
			l18.6-12.6c0.8-0.6,1.8-0.9,2.8-0.9c0.6,0,1.2,0.1,1.7,0.3l21.1,7.8c0.9,0.3,1.9,0.5,2.9,0.5c2.3,0,4.6-1,6.1-2.7l15.1-16.6
			c0.9-1,2.3-1.6,3.7-1.6c0.2,0,0.4,0,0.5,0l22.3,2.5c0.3,0,0.6,0,0.9,0c3.1,0,5.8-1.7,7.3-4.4l10.6-19.8c0.8-1.4,2.2-2.4,3.7-2.6
			l22.3-3c3.4-0.4,6.1-2.9,6.9-6.1l6.2-24.2l23.3-9.1c3.2-1.2,5.2-4.2,5.3-7.6l0.3-25l20.4-14.4c2.8-2,4.1-5.4,3.3-8.7l-4.5-19.2
			c-0.8-3.2,0.1-6.6,2.2-9.1l12.9-14.9c2.2-2.6,2.7-6.2,1.1-9.2l-10.2-20c-0.7-1.4-0.7-3.1,0-4.6l10.2-20c1.5-3,1.1-6.6-1.1-9.2
			l-14.7-17c-1-1.2-1.5-2.9-1.1-4.4l5.1-21.8c0.8-3.3-0.5-6.7-3.3-8.7l-20.4-14.4l-0.3-25c0-3.4-2.1-6.4-5.3-7.6l-23.3-9.1L407,92.3
			c-0.8-3.3-3.6-5.7-6.9-6.1l-22.3-3c-1.6-0.2-3-1.2-3.8-2.6l-10.6-19.8c-1.4-2.7-4.2-4.4-7.3-4.4c-0.3,0-0.6,0-0.9,0l-22.3,2.5
			c-0.2,0-0.4,0-0.5,0c-1.4,0-2.8-0.6-3.7-1.6l-15.1-16.6c-1.6-1.7-3.8-2.7-6.1-2.7c-1,0-1.9,0.2-2.9,0.5l-23.5,8.7l-20.8-14
			c-1.4-0.9-3-1.4-4.6-1.4s-3.3,0.5-4.6,1.4l-18.6,12.6c-0.8,0.6-1.8,0.9-2.8,0.9c-0.6,0-1.2-0.1-1.7-0.3l-21.1-7.8
			c-0.9-0.3-1.9-0.5-2.9-0.5c-2.3,0-4.6,1-6.1,2.7l-15.1,16.6c-0.9,1-2.3,1.6-3.7,1.6c-0.2,0-0.4,0-0.5,0l-22.3-2.5
			c-0.3,0-0.6-0.1-0.9-0.1c-3.1,0-5.9,1.7-7.3,4.4l-10.6,19.8c-0.8,1.4-2.2,2.4-3.7,2.6l-22.3,3c-3.4,0.4-6.1,2.9-6.9,6.1l-6.2,24.2
			l-23.3,9.1c-3.2,1.2-5.2,4.2-5.3,7.6l-0.3,25l-20.4,14.4c-2.8,2-4.1,5.4-3.3,8.7l4.5,19.2c0.8,3.2-0.1,6.6-2.2,9.1l-12.9,14.9
			c-2.2,2.6-2.7,6.2-1.1,9.2l10.2,20c0.7,1.4,0.7,3.1,0,4.6l-10.2,20c-1.5,3-1.1,6.6,1.1,9.2l14.7,17c1,1.2,1.5,2.9,1.1,4.4
			l-5.1,21.8c-0.8,3.3,0.5,6.7,3.3,8.7l20.4,14.4l0.3,25c0,3.4,2.1,6.4,5.3,7.6l23.3,9.1l6.2,24.2c0.8,3.3,3.6,5.7,6.9,6.1l22.3,3
			c1.6,0.2,3,1.2,3.8,2.6l10.6,19.8c1.4,2.7,4.2,4.4,7.3,4.4c0.3,0,0.6,0,0.9-0.1l22.3-2.5c0.2,0,0.4,0,0.5,0c1.4,0,2.8,0.6,3.7,1.6
			l15.1,16.6c1.6,1.7,3.8,2.7,6.1,2.7c1,0,1.9-0.2,2.9-0.5l23.5-8.6L251.4,478.9z"/>
	</g>
</g>
<g>
	<g>
		<path class="st1" d="M256.5,435c-0.8,0-1.7,0-2.5,0c-46.8-0.6-91-19.4-124.3-52.7S77.7,304.8,77,258c-0.7-48.4,17.7-94,51.7-128.5
			C162.8,95,208.2,76,256.5,76c0.8,0,1.7,0,2.5,0c46.8,0.6,91,19.4,124.3,52.7s52,77.5,52.7,124.3c0.7,48.4-17.7,94-51.7,128.5
			C350.2,416,304.8,435,256.5,435L256.5,435z M256.5,85.2c-0.8,0-1.6,0-2.4,0c-91.3,1.3-166.6,76.6-167.9,167.9
			C85.6,299,103,342.3,135.3,375s75.3,50.8,121.2,50.8c0.8,0,1.6,0,2.4,0c91.3-1.3,166.6-76.6,167.9-167.9
			c0.6-45.9-16.8-89.2-49.1-121.9C345.4,103.2,302.4,85.2,256.5,85.2z"/>
	</g>
</g>
<g>
	<g>
		<g>
			<g>
				<g>
					<path class="st0" d="M236.3,345.5c-0.8-0.1-2.7-0.6-3.6-1.7l-0.4-0.4L145.1,265c-1.5-1.6-2.4-3.2-2.5-4.6l-0.1-0.4l-0.1-0.4
						c-0.1-0.8,0.2-1.7,0.9-2.6c1.9-1.4,3.8-2.7,5.5-2.7c1.2,0,1.8,0.5,2.2,1l0.4,0.5l82.8,74.8l122.4-148.6
						c1.9-1.5,3.7-2.3,5.2-2.3c1.2,0,1.5,0.2,2.2,1l0.2,0.2l0.2,0.2c1.6,1.6,2.2,3.8,2.4,5.3c0.1,0.9-0.3,2-1.2,3l-0.2,0.2
						L238.2,344.6C237.3,345.1,236.6,345.4,236.3,345.5z"/>
				</g>
			</g>
		</g>
	</g>
</g>
</svg>
