<svg width="273" height="273" viewBox="0 0 273 273" fill="none" xmlns="http://www.w3.org/2000/svg">
<path d="M49.2495 128.242C46.9647 128.242 45.1582 126.435 45.1582 124.151C45.1582 121.866 46.9647 120.059 49.2495 120.059H249.562L204.08 74.5773C202.592 73.0364 202.592 70.486 204.08 68.892C205.143 67.8293 206.365 67.6699 207.056 67.6699C207.64 67.6699 208.862 67.8293 209.872 68.8389L262.368 121.335C263.111 122.079 263.59 123.141 263.59 124.204C263.59 125.692 262.846 126.648 262.368 127.073C261.942 127.498 260.986 128.295 259.498 128.295H49.2495V128.242Z" fill="#44004E"/>
<path d="M68.7488 206.933C68.1643 206.933 66.9422 206.773 65.9327 205.764L13.4369 153.268C12.693 152.524 12.2148 151.462 12.2148 150.399C12.2148 148.114 14.0214 146.308 16.3061 146.308H226.555C228.84 146.308 230.646 148.114 230.646 150.399C230.646 152.684 228.84 154.49 226.555 154.49H26.2421L71.7242 199.972C73.212 201.513 73.212 204.064 71.7242 205.658C70.6616 206.773 69.4395 206.933 68.7488 206.933Z" fill="#FF00FF"/>
<path d="M239.678 155.181C242.437 155.181 244.673 152.945 244.673 150.187C244.673 147.429 242.437 145.192 239.678 145.192C236.92 145.192 234.684 147.429 234.684 150.187C234.684 152.945 236.92 155.181 239.678 155.181Z" fill="#FF00FF"/>
<path d="M35.8598 129.571C38.6182 129.571 40.8543 127.335 40.8543 124.577C40.8543 121.818 38.6182 119.582 35.8598 119.582C33.1014 119.582 30.8652 121.818 30.8652 124.577C30.8652 127.335 33.1014 129.571 35.8598 129.571Z" fill="#44004E"/>
</svg>
