<svg width="45" height="45" viewBox="0 0 45 45" fill="none" xmlns="http://www.w3.org/2000/svg">
<g clip-path="url(#clip0)">
<path d="M1.41787 36.2316C1.1674 36.2316 0.96875 36.0329 0.96875 35.7825V7.26357C0.96875 7.0131 1.1674 6.81445 1.41787 6.81445H35.1621C36.0862 6.81445 36.9672 7.1772 37.6495 7.84224C38.3232 8.51591 38.6773 9.3796 38.6773 10.3297V17.4205C38.6773 17.671 38.4786 17.8696 38.2282 17.8696C37.9777 17.8696 37.779 17.671 37.779 17.4205V10.3297C37.779 9.63007 37.5113 8.98231 37.019 8.49C36.5094 7.9977 35.853 7.72996 35.1793 7.72996H1.87562V35.3593H35.1707C35.8703 35.3593 36.5181 35.0915 37.0104 34.5992C37.5113 34.0724 37.7704 33.4333 37.7704 32.7596V25.6687C37.7704 25.4183 37.9691 25.2196 38.2195 25.2196C38.47 25.2196 38.6686 25.4183 38.6686 25.6687V32.725C38.6686 33.6492 38.2973 34.556 37.6409 35.2125C36.9758 35.8775 36.0949 36.2402 35.1534 36.2402H1.41787V36.2316Z" fill="#44004E"/>
<path d="M31.0675 26.1177C30.4197 26.1177 29.7892 25.8586 29.3056 25.3922C28.8392 24.9258 28.5801 24.3039 28.5801 23.6302V19.4327C28.5801 18.785 28.8392 18.1545 29.3056 17.6708C29.7979 17.1958 30.4025 16.9453 31.0675 16.9453H41.5354C42.1831 16.9453 42.8136 17.2044 43.2973 17.6708C43.7637 18.1199 44.0228 18.7504 44.0228 19.4327V23.6302C44.0228 24.278 43.7637 24.9085 43.2973 25.3922C42.8482 25.8586 42.2177 26.1177 41.5354 26.1177H31.0675ZM31.0675 17.8695C30.6616 17.8695 30.2556 18.0422 29.9706 18.3272C29.6856 18.6122 29.5129 19.0268 29.5129 19.4241V23.6216C29.5129 24.0275 29.6856 24.4335 29.9706 24.7185C30.2556 25.0035 30.6702 25.1762 31.0675 25.1762H41.5354C41.9413 25.1762 42.3472 25.0035 42.6322 24.7185C42.9173 24.4335 43.09 24.0189 43.09 23.6216V19.4241C43.09 19.0182 42.9173 18.6122 42.6322 18.3272C42.33 18.0249 41.9586 17.8695 41.544 17.8695H31.0675Z" fill="#44004E"/>
<path d="M33.9948 23.7259C33.4593 23.7259 32.9325 23.5014 32.5784 23.13C32.1897 22.7413 31.9824 22.249 31.9824 21.7136C31.9824 21.1781 32.207 20.6512 32.5784 20.2971C32.9497 19.9085 33.442 19.7012 33.9948 19.7012C34.5303 19.7012 35.0571 19.9257 35.4113 20.2971C35.7999 20.6858 36.0072 21.1781 36.0072 21.7136C36.0072 22.249 35.7826 22.7759 35.4113 23.13C35.0399 23.51 34.5217 23.7259 33.9948 23.7259ZM33.9948 20.6167C33.7098 20.6167 33.4248 20.7376 33.2175 20.9449C33.0188 21.1435 32.8893 21.4458 32.8893 21.7222C32.8893 22.0072 33.0102 22.2922 33.2175 22.4995C33.4161 22.6982 33.7184 22.8277 33.9948 22.8277C34.2798 22.8277 34.5648 22.7068 34.7721 22.4995C34.9708 22.3009 35.1003 21.9986 35.1003 21.7222C35.1003 21.4458 34.9967 21.1781 34.7894 20.9622L34.7721 20.9449C34.5648 20.729 34.2798 20.6167 33.9948 20.6167Z" fill="#FF00FF"/>
<path d="M35.4472 13.5249C35.1968 13.5249 34.9981 13.3262 34.9981 13.0757C34.9981 12.3762 34.7304 11.7284 34.2381 11.2361C33.7112 10.7352 33.0721 10.4761 32.3984 10.4761H22.2069C21.9565 10.4761 21.7578 10.2774 21.7578 10.0269C21.7578 9.77647 21.9565 9.57782 22.2069 9.57782H22.4833V9.56055H32.3812C33.3226 9.56055 34.2035 9.9233 34.8686 10.5883C35.5336 11.2534 35.8964 12.1343 35.8964 13.0757C35.8964 13.3262 35.6977 13.5249 35.4472 13.5249Z" fill="#FF00FF"/>
</g>
<defs>
<clipPath id="clip0">
<rect width="44.2207" height="44.2207" fill="white" transform="translate(0.148438)"/>
</clipPath>
</defs>
</svg>
