<svg width="24" height="24" viewBox="0 0 24 24" fill="none" xmlns="http://www.w3.org/2000/svg">
<path d="M12.0043 11.7184C10.7181 11.7184 9.49907 11.214 8.57431 10.2892C7.65796 9.37284 7.14514 8.15384 7.14514 6.85918C7.14514 5.56452 7.64955 4.35393 8.57431 3.42917C9.49066 2.51282 10.7097 2 12.0043 2C13.2906 2 14.5096 2.50441 15.4343 3.42917C16.3507 4.34552 16.8635 5.56452 16.8635 6.85918C16.8635 8.15384 16.3591 9.36443 15.4343 10.2892C14.5096 11.2055 13.2906 11.7184 12.0043 11.7184ZM12.0127 2.83228C10.9282 2.83228 9.91941 3.25263 9.16279 4.00925C8.40617 4.76587 7.98583 5.7831 7.98583 6.85918C7.98583 7.93526 8.40617 8.9525 9.16279 9.70912C9.91941 10.4657 10.9366 10.8861 12.0127 10.8861C13.0972 10.8861 14.106 10.4657 14.8627 9.70912C15.6193 8.9525 16.0396 7.93526 16.0396 6.85918C16.0396 5.7831 15.6193 4.76587 14.8627 4.00925C14.106 3.25263 13.0972 2.83228 12.0127 2.83228Z" fill="#44004E"/>
<path d="M11.9874 22C10.4741 22 8.99453 21.6805 7.59058 21.0584C6.23708 20.4531 4.98445 19.5284 3.96722 18.385C3.89996 18.301 3.86633 18.2169 3.86633 18.116V16.7625C3.86633 15.4763 4.28668 14.2489 5.08533 13.2232C5.86717 12.206 6.98529 11.4746 8.22951 11.1635C8.26314 11.1551 8.29676 11.1551 8.33039 11.1551C8.49853 11.1551 8.64145 11.2476 8.70029 11.3905C9.05338 11.9538 9.52417 12.4077 10.0958 12.7356C10.6843 13.0635 11.3401 13.2316 11.9958 13.2316C12.6683 13.2316 13.3325 13.0551 13.8958 12.7356C14.4758 12.4162 14.9718 11.937 15.3249 11.3569C15.4006 11.2308 15.5267 11.1551 15.6696 11.1551C15.7116 11.1551 15.7537 11.1635 15.7873 11.1719C17.0147 11.483 18.1328 12.2144 18.9147 13.2316C19.7049 14.2404 20.1337 15.5015 20.1337 16.7709V18.1244C20.1168 18.2337 20.0748 18.3262 19.9992 18.4103C18.9735 19.5536 17.7629 20.4447 16.401 21.0584C15.0139 21.6805 13.5343 22 11.9874 22ZM4.6818 17.9647C5.59815 18.9651 6.72467 19.7806 7.92686 20.3186C9.18789 20.8903 10.6003 21.1845 11.9874 21.1845C13.3913 21.1845 14.7533 20.8903 16.0479 20.3186C17.2921 19.7554 18.385 18.9651 19.293 17.9647V16.7709C19.293 15.6612 18.9315 14.6188 18.2505 13.736C17.6368 12.9458 16.7961 12.3573 15.8377 12.0378C15.4342 12.6095 14.913 13.0803 14.2909 13.4418C13.5763 13.8369 12.8029 14.0387 11.9874 14.0387C11.1719 14.0387 10.3985 13.8369 9.6839 13.4418C9.06179 13.0887 8.54056 12.6095 8.13703 12.0378C7.17024 12.3405 6.33796 12.929 5.72426 13.736C5.0433 14.6104 4.6818 15.6612 4.6818 16.7709V17.9647Z" fill="#44004E"/>
</svg>
